{"glyphs":{"0":{"ha":903,"x_min":-4,"x_max":865,"o":"m 800 764 q 854 574 843 676 q 842 371 865 472 q 757 178 817 261 q 610 47 697 94 q 428 0 522 0 q 250 43 335 0 q 107 161 165 86 q 22 333 49 236 q 3 538 -4 429 q 47 731 10 638 q 144 897 83 825 q 414 1031 257 1031 q 640 954 532 1031 q 731 870 690 918 q 800 764 772 822 m 456 518 q 457 532 458 526 q 434 555 454 551 q 400 551 414 558 q 385 531 389 544 q 386 507 381 518 q 404 491 392 496 q 428 489 417 486 q 446 499 439 492 q 456 518 453 507 z "},"1":{"ha":639,"x_min":-1,"x_max":574,"o":"m 567 829 q 568 784 568 806 q 569 740 568 763 q 574 467 574 603 q 574 193 574 332 q 544 86 574 129 q 469 22 514 43 q 374 0 425 0 q 278 22 322 0 q 203 86 233 43 q 174 193 174 129 q 174 312 174 253 q 175 431 174 371 q 111 451 142 436 q 57 486 81 465 q 12 551 25 515 q 0 626 -1 588 q 17 703 1 665 q 57 769 32 740 q 133 856 94 814 q 207 943 171 899 q 278 1007 238 982 q 371 1031 318 1032 q 457 1013 415 1031 q 526 957 499 994 q 556 897 549 929 q 567 829 564 864 z "},"2":{"ha":764,"x_min":-8,"x_max":710,"o":"m 707 217 q 688 125 710 169 q 626 49 667 81 q 546 10 586 18 q 465 3 506 3 l 461 3 l 424 3 q 403 2 413 3 q 382 1 393 1 q 305 6 343 1 q 233 23 267 10 q 170 61 199 36 q 124 128 142 86 q 106 189 108 160 q 108 247 103 218 q 124 301 114 275 q 147 354 135 328 l 149 358 q 162 393 153 369 q 182 444 171 417 q 199 485 192 468 q 211 518 206 503 q 200 517 206 517 q 188 517 194 517 q 130 525 158 517 q 78 550 101 533 q 10 642 28 583 q 11 767 -8 700 q 37 829 21 797 q 76 896 53 861 q 188 997 119 961 q 338 1032 257 1032 q 505 987 429 1032 q 621 863 581 942 q 655 753 647 808 q 659 644 663 697 q 644 542 656 590 q 619 453 632 493 q 610 426 615 439 q 600 399 606 413 q 676 323 647 371 q 707 217 704 275 z "},"3":{"ha":750,"x_min":-3,"x_max":714,"o":"m 608 656 q 692 482 671 582 q 688 286 714 382 q 625 164 668 219 q 558 97 596 126 q 476 45 519 67 q 386 12 433 24 q 293 0 339 0 q 201 13 244 0 q 98 66 143 28 q 25 158 53 104 q 1 240 4 197 q 11 319 -3 282 q 47 381 22 356 q 108 422 72 407 q 183 438 147 439 q 268 411 226 438 q 280 401 274 408 q 294 388 286 394 q 308 379 301 382 q 322 381 315 376 q 330 394 328 385 q 330 412 332 403 q 323 428 328 421 q 311 438 318 436 q 283 438 297 440 q 256 438 269 436 q 204 454 229 442 q 125 524 156 478 q 97 593 101 557 q 104 663 92 629 q 133 717 114 689 q 81 742 103 725 q 45 780 58 758 q 26 826 32 801 q 21 875 19 851 q 32 926 22 901 q 60 972 42 951 q 106 1006 78 993 q 169 1021 133 1019 l 183 1022 q 326 1028 254 1025 q 468 1031 397 1031 l 469 1031 q 482 1031 476 1031 q 493 1029 488 1031 q 576 992 542 1022 q 622 913 611 961 q 628 858 629 886 q 619 804 626 831 q 599 755 611 778 q 574 714 588 732 q 569 708 571 711 q 564 703 567 706 q 563 701 564 701 q 608 656 588 681 z "},"4":{"ha":764,"x_min":-1,"x_max":718,"o":"m 718 428 q 685 317 718 367 q 597 240 653 267 q 597 194 599 215 q 583 120 597 154 q 542 60 568 86 q 481 18 517 33 q 406 1 446 3 q 399 0 403 0 q 327 16 361 0 q 267 59 293 32 q 226 121 242 86 q 210 194 210 156 l 210 225 l 161 225 l 161 228 q 31 318 76 243 q 1 422 3 367 q 24 528 -1 478 q 111 687 65 608 q 203 842 157 765 l 203 843 q 232 890 218 867 q 260 938 246 914 q 330 1006 286 982 q 425 1031 374 1031 q 519 1006 478 1031 q 574 957 553 986 q 605 894 596 928 q 610 822 614 860 q 589 749 607 785 q 564 698 576 724 q 540 649 551 672 l 533 635 q 606 613 572 631 q 664 567 639 594 q 703 503 689 539 q 718 428 718 467 z "},"5":{"ha":750,"x_min":-1,"x_max":700,"o":"m 533 688 q 656 555 611 639 q 699 376 700 471 q 660 222 697 296 q 597 137 636 176 q 508 69 557 97 q 403 22 458 40 q 291 1 347 4 q 181 10 235 -3 q 82 53 126 22 q 25 115 46 78 q 1 196 4 153 q 14 272 -1 236 q 58 332 29 307 q 150 374 97 365 q 197 376 174 376 q 244 374 221 375 q 290 373 267 372 q 335 383 314 374 q 337 384 336 383 q 339 385 338 385 q 339 394 342 388 q 306 410 328 410 q 268 407 283 410 q 232 400 250 404 q 196 394 214 396 q 115 413 151 392 q 55 465 79 432 q 24 539 31 499 q 15 625 18 575 q 13 728 11 675 q 25 835 15 782 q 56 929 35 888 q 114 997 78 971 q 204 1026 150 1024 q 263 1027 222 1026 q 349 1028 304 1028 q 433 1030 393 1029 q 490 1031 474 1031 q 611 981 558 1033 q 650 921 636 954 q 664 853 664 888 q 626 749 663 794 q 533 688 590 704 z "},"6":{"ha":750,"x_min":-6,"x_max":706,"o":"m 693 408 q 689 265 706 335 q 628 138 672 196 q 503 36 578 72 q 344 0 428 0 q 156 58 242 0 q 56 167 92 103 q 7 306 19 232 q 3 456 -6 379 q 35 601 11 532 q 97 744 60 678 q 181 865 135 811 q 438 1028 293 994 q 454 1030 446 1029 q 471 1031 463 1031 q 549 1009 511 1031 q 610 951 586 988 q 641 847 640 903 q 611 750 642 792 q 518 665 594 724 q 524 663 521 664 q 529 660 526 661 q 638 550 596 615 q 693 408 681 485 m 368 360 q 353 376 367 374 q 329 372 339 378 q 319 360 322 369 q 319 343 317 351 q 349 331 329 326 q 368 350 363 335 l 368 360 z "},"7":{"ha":819,"x_min":0,"x_max":754,"o":"m 731 929 q 749 879 743 906 q 754 824 754 853 q 747 764 753 796 q 728 699 740 732 q 696 617 713 657 q 663 536 679 576 q 642 489 651 513 q 624 442 633 465 q 554 276 590 361 q 478 104 518 192 q 407 28 456 57 q 299 0 358 0 q 193 28 240 0 q 135 79 158 47 q 102 149 113 111 q 95 227 92 186 q 118 307 99 268 l 118 308 l 118 307 q 121 315 118 310 q 126 325 124 319 q 132 338 129 331 q 148 372 139 353 q 168 415 157 392 q 213 508 188 456 q 260 603 238 561 l 276 635 l 269 635 q 201 638 238 635 q 132 653 164 642 q 35 722 69 674 q 0 832 0 769 q 35 942 0 893 q 132 1013 71 990 q 199 1026 164 1024 q 265 1029 233 1029 l 293 1029 l 331 1029 l 363 1029 q 456 1031 408 1031 q 550 1031 503 1031 q 659 1004 613 1031 q 731 929 706 978 z "},"8":{"ha":819,"x_min":-4,"x_max":765,"o":"m 679 624 q 730 538 710 585 q 758 440 750 490 q 760 340 765 390 q 739 243 756 289 q 657 116 711 169 q 533 33 603 63 q 387 -1 464 3 q 238 24 310 -4 q 118 100 169 49 q 38 216 67 151 q 2 353 8 281 q 19 493 -4 425 q 49 558 31 525 q 93 619 68 590 q 90 638 94 622 q 86 657 86 653 q 83 675 83 667 q 83 693 83 683 q 85 726 83 710 q 89 758 86 743 q 131 884 100 824 q 217 985 163 944 q 287 1018 249 1007 q 364 1030 325 1029 q 442 1022 403 1031 q 515 997 481 1014 q 622 916 576 968 q 686 799 668 864 q 697 708 699 753 q 679 624 694 664 m 413 358 q 414 372 414 364 q 391 395 411 392 q 357 392 371 399 q 342 372 346 385 q 343 349 338 360 q 360 332 349 338 q 385 329 372 326 q 413 358 407 336 m 413 739 q 414 753 414 743 q 391 776 411 772 q 357 772 371 779 q 342 753 346 765 q 343 729 338 740 q 360 713 349 718 q 385 710 372 707 q 413 739 408 717 z "},"9":{"ha":764,"x_min":-7,"x_max":703,"o":"m 6 624 q 10 767 -7 697 q 71 894 26 836 q 196 994 121 958 q 354 1031 271 1031 q 543 972 460 1031 q 642 863 607 928 q 690 726 678 799 q 695 576 703 653 q 664 431 688 499 q 601 288 639 354 q 518 167 564 221 q 261 4 406 38 q 228 0 244 0 q 150 22 188 0 q 89 81 113 43 q 58 185 58 129 q 88 282 57 240 q 119 317 97 297 q 181 365 140 336 q 175 369 178 368 q 169 372 172 369 q 60 481 103 415 q 6 624 18 546 m 331 672 q 346 656 332 658 q 369 658 360 653 q 379 672 376 663 q 379 689 382 681 q 350 701 369 706 q 331 682 335 696 l 331 672 z "},"Y":{"ha":1007,"x_min":-3,"x_max":960,"o":"m 939 894 q 948 780 960 839 q 894 672 936 721 l 885 661 q 833 601 858 631 q 779 540 807 571 q 759 519 769 529 q 739 497 749 508 q 708 466 724 482 q 682 435 693 450 q 680 397 681 422 q 679 344 679 372 q 680 289 679 315 q 681 246 681 263 q 682 219 682 231 q 682 200 682 207 q 626 60 682 115 q 559 16 599 32 q 476 0 519 0 q 393 16 432 0 q 326 60 354 32 q 271 200 271 115 q 271 311 271 254 q 272 432 271 368 q 247 461 264 443 q 221 489 231 479 q 212 499 215 494 q 206 506 208 503 q 155 563 179 535 q 110 614 131 590 q 102 622 106 618 q 94 631 99 626 q 59 672 78 650 q 26 719 40 693 q 5 776 13 746 q 1 842 -3 806 q 38 939 8 894 q 117 1008 68 983 q 214 1031 164 1031 q 364 965 307 1031 l 371 957 q 424 894 397 925 q 476 831 450 863 q 496 854 488 842 q 535 901 515 878 q 575 947 556 924 q 651 1009 608 988 q 743 1031 694 1031 q 760 1030 751 1031 q 778 1028 768 1029 q 839 1007 810 1022 q 892 968 868 992 q 939 894 925 935 z "},"X":{"ha":1000,"x_min":-3,"x_max":954,"o":"m 839 611 q 833 606 836 610 q 825 596 831 601 q 780 546 799 568 q 747 508 761 524 q 800 447 774 478 q 853 383 826 415 q 858 376 856 379 q 864 369 861 372 q 914 301 889 340 q 940 208 939 263 q 901 84 942 140 q 792 7 860 28 q 736 -1 763 -1 q 681 8 707 -1 q 634 30 656 17 q 595 60 613 43 q 565 92 578 76 q 558 100 563 94 q 546 113 553 106 q 513 149 532 128 q 475 192 493 171 q 474 190 475 190 q 406 109 442 150 q 328 39 371 68 q 210 0 276 0 q 67 58 125 0 q 24 123 39 88 q 9 196 10 158 q 22 272 8 233 q 63 343 35 310 q 128 420 94 379 q 203 510 163 461 q 153 565 182 533 q 106 617 125 596 l 99 625 q 38 701 68 658 q 1 804 7 744 q 19 904 -3 857 q 83 983 42 951 q 215 1026 142 1026 q 298 1010 260 1026 q 363 963 336 993 q 419 897 390 929 q 475 831 447 864 q 531 897 503 864 q 588 963 560 929 q 652 1012 615 994 q 731 1029 689 1029 q 825 1007 779 1029 q 903 944 871 985 q 943 862 932 906 q 943 774 954 818 q 906 692 932 726 q 854 629 881 657 q 846 619 850 624 q 839 611 842 615 z "},"V":{"ha":1042,"x_min":0,"x_max":994,"o":"m 990 835 q 990 775 994 804 q 978 719 986 746 q 958 669 969 693 q 938 625 947 646 q 884 520 910 572 q 832 415 858 468 l 831 414 q 783 318 808 368 q 733 218 758 268 q 728 209 731 214 q 724 200 726 204 l 724 199 q 699 150 713 175 q 669 101 686 125 q 628 56 651 76 q 576 21 606 35 q 489 0 536 0 q 401 19 444 0 q 325 72 357 38 q 250 178 278 121 q 199 293 222 235 q 185 327 192 311 q 172 358 179 343 q 99 524 136 438 q 21 710 61 610 q 1 814 0 761 q 24 911 1 867 q 160 1022 65 994 q 217 1029 190 1029 q 350 985 293 1029 q 415 909 392 953 q 453 826 438 865 l 454 824 q 469 788 461 806 q 485 753 476 771 l 531 844 q 574 921 549 879 q 643 992 600 963 q 771 1031 699 1031 q 861 1011 818 1031 q 874 1005 868 1008 q 885 999 879 1001 q 957 928 929 971 q 990 835 985 885 z "},"U":{"ha":986,"x_min":0,"x_max":932,"o":"m 858 874 q 913 715 894 797 q 932 547 932 632 q 913 385 932 463 q 858 242 894 308 q 758 113 818 167 q 625 29 697 58 q 468 0 551 0 l 464 0 q 307 29 379 0 q 174 113 235 58 q 74 242 114 167 q 19 385 38 308 q 0 547 0 463 q 19 715 0 632 q 74 874 38 797 q 201 1017 126 983 q 267 1031 231 1031 q 367 1001 321 1031 q 433 924 414 971 q 429 747 463 851 l 417 710 q 388 615 401 664 q 386 526 375 567 q 418 476 394 490 q 465 461 442 461 q 513 476 489 461 q 546 526 538 490 q 544 615 557 567 q 515 710 531 664 l 503 747 q 499 924 469 851 q 565 1001 518 971 q 665 1031 611 1031 q 731 1017 701 1031 q 858 874 806 983 z "},"T":{"ha":875,"x_min":-4,"x_max":843,"o":"m 831 875 q 833 776 843 826 q 792 686 822 726 q 721 628 763 649 q 631 607 679 607 l 629 607 q 631 561 629 592 q 633 491 632 531 q 635 408 635 451 q 637 323 636 364 q 638 249 638 282 q 636 197 638 215 q 616 119 633 156 q 569 57 599 83 q 503 15 540 31 q 424 0 465 0 q 340 17 382 0 q 225 156 250 54 q 214 245 214 200 q 215 335 214 290 q 217 428 217 381 q 217 519 217 475 l 217 608 q 122 628 168 610 q 43 688 75 647 q 5 772 14 725 q 8 865 -4 818 q 78 975 25 932 q 200 1021 131 1018 q 428 1028 324 1025 q 631 1031 533 1031 l 632 1031 q 699 1019 667 1031 q 758 988 732 1008 q 803 938 785 967 q 831 875 822 910 z "},"S":{"ha":847,"x_min":-4,"x_max":808,"o":"m 538 625 q 526 619 526 625 q 525 613 525 617 q 531 603 525 608 q 551 590 538 597 q 593 572 565 582 q 606 568 601 569 q 722 485 672 543 q 779 374 764 435 q 779 254 794 313 q 719 139 764 192 q 611 54 674 86 q 498 13 558 26 q 375 0 438 0 q 313 4 343 0 q 160 49 228 14 q 51 140 93 83 q 8 232 21 182 q 4 329 -4 282 q 18 374 8 351 q 44 415 28 397 q 81 444 60 433 q 126 456 101 456 q 172 447 150 456 q 213 426 193 438 q 226 419 219 422 q 239 413 232 415 q 252 408 244 410 q 267 406 260 406 q 276 407 275 406 q 279 411 278 408 q 279 419 279 414 q 274 429 279 424 q 253 442 268 435 q 211 460 239 450 l 199 464 q 137 497 167 475 q 82 546 107 518 q 26 657 40 596 q 26 776 11 718 q 87 892 42 839 q 194 976 132 946 q 214 986 200 981 q 433 1031 315 1031 l 449 1031 q 497 1026 472 1031 q 544 1018 521 1024 q 590 1006 568 1013 q 754 890 696 969 q 797 799 785 849 q 800 701 808 750 q 786 656 796 678 q 761 615 776 633 q 725 586 746 597 q 679 575 704 575 l 678 575 q 633 584 654 575 q 592 604 611 593 q 579 612 585 608 q 567 618 574 615 q 538 625 556 625 z "},"Q":{"ha":1104,"x_min":-11,"x_max":1079,"o":"m 1018 332 q 1066 246 1053 296 q 1067 147 1079 196 q 1015 60 1053 97 q 928 10 978 22 q 827 10 878 -4 q 740 63 776 25 q 628 16 688 32 q 507 -1 568 0 q 386 13 446 -1 q 272 56 326 26 q 93 215 164 113 q 4 440 22 318 q 21 658 -11 551 q 94 815 46 746 q 210 934 143 885 q 358 1008 276 983 q 531 1031 440 1033 q 658 1012 594 1028 q 777 967 721 996 q 881 894 833 938 q 961 797 928 851 q 1026 592 1018 703 q 1003 375 1033 481 q 1000 365 1001 369 q 1000 354 999 360 q 1015 336 1003 346 q 1018 332 1015 335 m 540 518 q 542 531 543 526 q 519 554 539 550 q 485 550 499 558 q 469 531 474 544 q 471 507 465 518 q 489 490 476 496 q 513 489 501 485 q 531 499 524 492 q 540 518 538 507 z "},"O":{"ha":1083,"x_min":-6,"x_max":1032,"o":"m 1000 714 q 1026 512 1032 615 q 978 313 1021 408 q 856 142 933 214 q 683 35 778 71 q 482 1 588 -1 q 278 53 376 3 q 96 209 167 108 q 7 432 25 310 q 10 609 -6 521 q 67 774 25 697 q 174 909 108 850 q 328 1000 240 968 q 527 1031 422 1033 q 726 990 632 1028 q 894 883 821 953 q 1000 714 968 814 m 540 517 q 542 531 543 526 q 519 554 539 550 q 485 550 500 558 q 469 531 474 544 q 471 507 465 518 q 489 490 476 496 q 513 488 501 485 q 540 517 535 494 z "},"N":{"ha":875,"x_min":0,"x_max":829,"o":"m 829 322 q 828 251 829 289 q 819 174 828 213 q 792 101 811 136 q 739 40 774 67 q 685 10 715 21 q 624 0 656 0 q 507 42 557 0 q 400 181 469 72 q 375 109 393 142 q 331 52 357 76 q 271 14 304 28 q 201 0 238 0 q 125 17 163 0 q 14 146 42 53 q 1 219 3 182 q 0 292 0 257 l 0 293 q 3 432 0 363 q 8 568 6 501 q 10 606 10 588 q 11 643 10 624 q 16 740 14 692 q 21 836 18 788 q 47 932 25 889 q 104 1000 68 975 q 196 1031 147 1031 q 266 1013 233 1031 q 326 970 299 996 q 374 914 353 944 q 414 858 396 883 l 418 851 q 429 835 424 843 q 440 819 435 828 q 442 842 442 831 q 446 867 443 854 q 497 978 460 939 q 597 1028 539 1019 q 610 1029 604 1029 q 624 1029 617 1029 q 729 994 682 1029 q 792 904 776 960 q 804 833 799 881 q 814 726 810 785 q 821 605 818 668 q 826 488 824 542 q 828 394 828 433 q 829 346 829 356 l 829 322 l 829 322 z "},"L":{"ha":729,"x_min":-1,"x_max":665,"o":"m 446 6 q 401 1 424 3 q 356 0 379 0 q 280 4 324 0 q 192 22 236 8 q 100 73 135 40 q 45 146 65 106 q 17 230 25 186 q 6 315 8 274 q 1 519 -1 419 q 7 706 3 618 q 8 725 8 713 q 17 826 11 774 q 49 928 24 879 q 117 1003 74 976 q 211 1031 161 1031 q 344 972 289 1031 q 380 919 367 947 q 399 861 393 890 q 406 804 404 832 q 407 754 407 776 l 407 668 q 408 560 408 615 q 411 451 408 506 l 411 421 q 428 422 419 421 q 443 422 436 422 q 453 422 449 422 q 461 421 457 421 q 516 413 485 419 q 581 383 547 407 q 643 309 621 354 q 665 215 665 264 q 647 131 665 168 q 597 68 628 94 q 526 26 565 42 q 446 6 488 11 z "},"K":{"ha":868,"x_min":0,"x_max":822,"o":"m 750 358 q 809 263 796 318 q 800 147 822 207 q 720 42 775 82 q 603 1 665 1 q 500 33 549 1 q 445 73 472 53 q 389 117 418 93 q 358 65 378 88 q 313 28 338 43 q 260 7 288 14 q 206 0 232 0 q 133 13 168 0 q 69 49 97 25 q 22 110 40 74 q 3 194 4 146 q 0 427 0 311 q 1 657 0 543 q 2 724 1 690 q 3 792 3 758 l 3 800 q 9 890 3 844 q 54 975 15 935 q 116 1016 81 1001 q 190 1031 151 1031 q 205 1031 197 1031 q 219 1029 213 1031 q 325 978 282 1019 q 379 875 368 936 l 476 968 q 608 1024 535 1024 q 724 986 669 1024 q 801 889 778 949 q 810 783 822 835 q 754 689 799 731 q 661 602 708 646 q 561 511 614 558 q 658 437 610 475 q 750 358 706 399 z "},"I":{"ha":479,"x_min":0,"x_max":421,"o":"m 421 325 q 420 256 421 292 q 413 185 419 221 q 392 117 407 150 q 349 57 376 83 q 284 15 321 29 q 208 0 247 0 q 190 1 199 0 q 174 3 182 1 q 88 41 126 11 q 29 114 49 71 q 8 198 10 154 q 7 282 6 242 l 7 288 q 8 426 8 357 q 4 563 7 494 q 3 610 3 586 q 1 657 3 633 l 1 688 q 0 756 0 721 q 5 826 0 792 q 22 893 10 860 q 56 956 33 926 q 124 1011 83 992 q 211 1031 165 1031 q 226 1030 218 1031 q 240 1028 233 1029 q 353 965 310 1017 q 394 881 385 928 q 408 790 404 835 q 417 604 415 697 q 419 419 418 511 q 419 379 419 400 q 421 339 419 358 l 421 325 l 421 325 z "},"H":{"ha":889,"x_min":0,"x_max":832,"o":"m 822 838 q 828 513 825 676 q 832 186 831 350 q 781 56 832 107 q 718 14 754 28 q 642 0 682 0 q 572 12 606 0 q 510 47 538 24 q 466 106 483 71 q 449 186 449 140 q 448 257 449 222 q 447 328 447 292 l 406 328 q 395 328 400 328 q 385 329 390 329 q 386 258 386 293 q 386 186 386 222 q 336 56 388 107 q 274 14 310 28 q 197 0 238 0 q 126 12 161 0 q 65 47 92 24 q 21 106 38 71 q 4 186 4 140 q 1 513 1 350 q 0 838 0 676 l 0 847 q 50 976 0 926 q 112 1017 76 1003 q 188 1031 147 1031 q 256 1019 222 1031 q 317 984 290 1007 q 361 927 344 961 q 378 847 378 893 l 379 729 l 394 729 l 444 729 l 444 847 q 494 976 444 924 q 556 1017 521 1003 q 632 1031 592 1031 q 701 1019 667 1031 q 762 984 735 1007 q 806 927 789 961 q 822 847 822 893 l 822 838 l 822 838 z "},"G":{"ha":1042,"x_min":0,"x_max":976,"o":"m 969 324 q 975 225 976 276 q 960 128 974 174 q 954 110 957 119 q 946 93 951 101 q 906 42 931 64 q 851 8 881 19 q 788 0 821 -3 q 725 22 754 3 q 715 30 719 26 q 703 33 710 33 q 692 32 694 33 q 648 19 669 25 q 603 8 626 13 q 372 19 485 -12 q 169 133 258 51 q 99 212 131 168 q 46 304 68 256 q 12 405 24 353 q 1 510 0 457 q 28 665 3 590 q 99 801 54 739 q 205 913 143 864 q 340 992 267 961 q 583 1028 458 1040 q 818 953 708 1017 q 867 919 843 938 q 910 878 892 901 q 941 828 929 856 q 953 771 953 801 q 926 667 954 717 q 849 593 897 618 q 778 574 814 575 q 706 586 742 574 q 667 603 686 593 q 628 622 647 614 q 588 632 608 629 q 546 629 567 635 q 503 608 522 622 q 474 574 485 593 q 456 528 461 554 q 461 481 450 503 q 487 457 469 465 q 522 449 504 449 q 559 455 542 449 q 592 469 576 461 q 633 495 613 482 q 678 518 654 508 q 769 532 725 536 q 872 501 824 528 q 943 422 921 475 q 960 374 954 399 q 969 324 965 350 z "},"C":{"ha":1000,"x_min":0,"x_max":971,"o":"m 906 468 q 946 412 931 443 q 966 346 961 381 q 965 277 971 311 q 940 213 958 243 q 827 94 897 142 q 675 22 757 46 q 507 0 593 -1 q 346 28 421 1 q 208 103 271 54 q 98 215 144 151 q 26 353 51 278 q 1 508 0 429 q 28 663 3 589 q 99 801 54 738 q 205 913 143 864 q 342 992 267 961 q 585 1028 458 1040 q 819 953 711 1017 q 869 919 844 938 q 913 877 894 900 q 944 827 932 854 q 956 769 956 800 q 928 666 957 715 q 851 592 900 617 q 781 573 817 574 q 708 585 744 572 q 669 602 689 592 q 630 620 650 613 q 589 631 610 628 q 547 629 568 635 q 506 607 524 622 q 475 572 488 592 q 457 527 463 553 q 463 479 451 501 q 488 456 471 464 q 524 447 506 447 q 560 453 543 447 q 593 468 578 458 q 635 494 615 481 q 679 517 656 507 q 771 531 726 535 q 843 512 808 528 q 906 468 878 496 z "},"B":{"ha":854,"x_min":-1,"x_max":813,"o":"m 806 431 q 808 338 813 385 q 786 247 804 292 q 686 110 753 161 q 538 33 619 58 q 367 3 456 8 q 197 3 278 -3 q 126 15 163 4 q 61 47 90 26 q 15 97 32 67 q 1 171 -1 128 q 9 285 7 229 q 14 400 11 342 q 15 460 15 431 q 15 519 15 489 q 16 624 17 572 q 13 729 15 676 q 10 828 10 778 q 40 919 11 878 q 107 981 67 957 q 196 1017 147 1006 q 297 1031 244 1029 q 400 1024 349 1032 q 497 1001 451 1017 q 578 964 543 985 q 669 873 636 928 q 714 754 703 818 q 710 625 725 690 q 772 535 749 585 q 806 431 796 485 m 432 333 q 433 347 433 338 q 410 370 431 367 q 376 367 390 374 q 361 347 365 360 q 363 324 357 335 q 381 307 368 313 q 404 304 393 301 q 432 333 428 311 m 432 739 q 433 753 433 743 q 410 776 431 772 q 376 772 390 779 q 361 753 365 765 q 363 729 357 740 q 381 713 368 718 q 404 710 393 707 q 432 739 428 717 z "},"A":{"ha":1007,"x_min":0,"x_max":967,"o":"m 940 596 q 961 468 956 535 q 960 334 967 401 q 931 203 953 267 q 872 88 910 140 q 817 34 849 56 q 748 5 785 13 q 674 3 711 -3 q 603 33 636 10 q 543 104 563 61 q 521 194 524 147 l 521 197 q 512 203 519 201 q 496 205 504 204 q 479 206 488 206 q 467 206 471 206 q 406 200 432 206 q 404 199 404 200 q 403 199 404 199 l 403 196 q 394 126 404 160 q 364 65 383 92 q 315 19 344 38 q 247 0 285 1 q 144 31 185 -3 q 77 114 103 64 q 38 222 51 164 q 15 328 24 281 q 1 486 0 407 q 22 640 3 565 q 80 783 42 715 q 176 910 118 851 q 287 988 226 958 q 412 1027 347 1018 q 542 1023 476 1036 q 671 975 608 1010 q 842 815 775 915 q 940 596 910 714 m 471 494 q 488 512 482 500 q 490 536 493 524 q 480 554 488 547 q 461 564 472 561 q 447 565 451 567 q 424 543 428 563 q 428 508 421 524 q 447 492 433 497 q 471 494 460 488 z "},"M":{"ha":1042,"x_min":-4,"x_max":990,"o":"m 985 226 q 967 110 990 161 q 896 29 944 60 q 793 0 851 0 q 665 49 717 0 q 633 87 646 67 q 613 128 621 107 q 602 169 606 149 q 597 210 599 190 q 551 189 576 197 q 493 181 525 181 q 435 189 461 181 q 388 210 408 197 q 372 128 385 171 q 321 49 360 85 q 192 0 268 0 q 89 29 135 0 q 19 110 42 60 q 1 226 -4 161 q 8 360 6 293 q 14 493 11 426 q 16 557 15 525 q 18 621 17 589 q 24 717 21 665 q 31 821 26 768 q 125 996 42 940 q 239 1031 176 1031 q 323 1012 283 1031 q 390 958 363 993 q 442 887 414 929 q 493 806 469 844 q 544 887 517 844 q 594 958 571 929 q 663 1012 622 993 q 747 1031 703 1031 q 861 996 807 1031 q 954 821 943 940 q 962 717 960 768 q 967 621 964 665 q 970 556 969 589 q 972 493 971 524 q 977 360 975 426 q 985 226 979 293 z "},"P":{"ha":792,"x_min":0,"x_max":757,"o":"m 738 694 q 713 490 757 585 q 647 397 689 440 q 549 324 604 353 q 478 294 514 306 q 404 281 442 283 l 404 278 q 404 265 404 271 q 406 251 404 258 q 406 224 406 238 q 407 197 407 211 q 403 157 406 175 q 394 122 401 139 q 328 33 376 67 q 217 0 281 0 q 107 31 157 0 q 58 74 78 49 q 29 132 39 100 q 22 186 22 160 q 21 236 21 213 l 21 238 l 21 339 q 15 528 19 432 q 3 724 10 624 l 3 729 q 1 775 1 751 q 3 822 0 799 q 17 870 7 846 q 49 918 28 894 q 101 963 72 944 q 160 994 131 982 q 217 1014 190 1007 q 265 1025 244 1021 q 299 1029 282 1028 q 333 1031 317 1031 q 517 988 431 1031 q 661 868 603 944 q 738 694 721 789 m 443 649 q 444 661 444 653 q 424 681 442 678 q 393 678 406 685 q 380 661 383 672 q 382 640 376 650 q 397 625 386 629 q 418 624 407 621 q 434 633 428 626 q 443 649 440 640 z "},"R":{"ha":792,"x_min":0,"x_max":751,"o":"m 707 494 q 654 414 688 451 q 576 349 621 376 q 667 260 650 293 q 684 214 679 239 q 686 163 689 189 q 667 100 682 129 q 628 49 653 71 q 574 16 604 28 q 508 4 543 4 q 436 19 468 4 q 394 43 414 29 q 357 72 375 57 q 210 0 300 0 q 154 8 182 0 q 102 31 126 15 q 58 70 78 46 q 31 128 39 94 q 22 181 24 154 q 21 231 21 207 l 21 232 l 21 336 q 15 529 19 431 q 3 729 11 628 l 3 735 q 1 780 1 757 q 3 826 0 803 q 17 873 7 850 q 47 919 26 896 q 100 965 71 946 q 158 995 129 983 q 215 1014 188 1007 q 263 1025 242 1021 q 296 1029 279 1028 q 329 1031 313 1031 q 511 988 425 1031 q 656 869 597 946 q 732 697 715 792 q 707 494 751 588 m 442 651 q 443 664 443 656 q 422 685 440 682 q 390 682 404 689 q 377 665 381 676 q 379 643 374 653 q 394 627 383 632 q 417 625 406 622 q 432 635 425 628 q 442 651 439 642 z "},"W":{"ha":1042,"x_min":-4,"x_max":990,"o":"m 985 804 q 977 671 979 738 q 972 538 975 604 q 970 474 971 507 q 967 410 969 442 q 962 314 964 365 q 954 210 960 263 q 861 35 943 90 q 747 0 807 0 q 663 19 703 0 q 594 72 622 38 q 544 144 571 101 q 493 225 517 186 q 442 144 469 186 q 390 72 414 101 q 323 19 363 38 q 239 0 283 0 q 125 35 176 0 q 31 210 42 90 q 24 314 26 263 q 18 410 21 365 q 16 474 17 442 q 14 538 15 506 q 8 671 11 604 q 1 804 6 738 q 19 920 -4 869 q 89 1001 42 971 q 192 1031 135 1031 q 321 982 268 1031 q 372 903 360 946 q 388 821 385 860 q 435 842 408 833 q 493 850 461 850 q 551 842 525 850 q 597 821 576 835 q 602 861 599 840 q 613 903 606 882 q 633 944 621 924 q 665 982 646 964 q 793 1031 717 1031 q 896 1001 851 1031 q 967 920 944 971 q 985 804 990 869 z "},"E":{"ha":750,"x_min":1,"x_max":704,"o":"m 535 340 q 628 309 585 338 q 692 232 672 281 q 703 174 703 204 q 695 117 704 144 q 667 65 686 89 q 622 29 649 42 q 567 11 596 15 q 510 4 538 7 q 351 0 431 -1 q 193 11 271 1 q 119 27 158 17 q 56 65 79 38 q 33 106 40 83 q 19 151 25 128 q 9 238 13 182 q 3 364 6 294 q 1 508 1 433 q 3 651 1 583 q 6 774 4 719 q 11 857 8 829 q 47 955 17 913 q 131 1013 76 997 q 190 1022 160 1021 q 249 1025 219 1024 q 349 1028 299 1026 q 449 1031 399 1031 q 540 1027 494 1031 q 626 999 586 1024 q 683 939 663 975 q 704 860 704 903 q 690 794 704 824 q 653 742 676 764 q 599 706 631 719 q 535 690 568 692 q 463 688 499 688 q 392 690 428 689 q 392 679 392 685 q 393 667 393 674 q 464 670 429 669 q 535 668 499 671 q 616 641 583 664 q 665 585 649 618 q 682 515 682 553 q 665 445 682 478 q 616 390 649 413 q 535 363 583 367 q 467 360 500 360 q 399 363 433 361 l 399 340 q 467 342 433 342 q 535 340 500 343 z "},"F":{"ha":736,"x_min":1,"x_max":719,"o":"m 542 660 q 624 632 592 656 q 674 576 657 608 q 690 505 690 543 q 674 433 690 467 q 624 376 657 400 q 542 350 592 353 q 473 348 507 347 q 404 350 439 349 l 404 326 l 404 313 q 403 244 404 279 q 394 175 401 210 q 372 110 386 140 q 333 54 358 79 q 279 17 310 31 q 215 0 249 3 q 149 6 182 -3 q 90 36 117 15 q 38 95 58 60 q 10 171 18 131 q 5 235 7 186 q 2 351 3 283 q 2 494 1 418 q 4 642 3 571 q 8 771 6 714 q 15 856 11 828 q 33 924 21 892 q 76 979 46 957 q 146 1012 108 1003 q 222 1024 183 1021 q 356 1030 289 1026 q 489 1028 422 1033 q 575 1015 532 1025 q 653 978 618 1006 q 704 902 689 949 q 708 811 719 856 q 647 719 694 754 q 542 682 599 685 q 469 680 506 679 q 397 682 433 681 q 397 670 397 675 q 399 658 397 665 q 470 661 435 660 q 542 660 506 663 z "},"D":{"ha":944,"x_min":0,"x_max":889,"o":"m 649 949 q 778 831 724 900 q 860 679 832 761 q 889 508 889 597 q 856 335 889 419 q 758 178 821 246 q 613 67 694 110 q 440 8 532 24 q 254 7 347 -8 q 235 11 244 10 q 215 15 226 13 q 101 61 158 31 q 17 149 44 92 q 1 228 0 185 q 3 310 3 271 q 3 361 3 325 q 3 444 3 397 q 5 546 4 492 q 7 651 6 600 q 10 745 8 701 q 13 815 11 789 q 19 864 15 840 q 35 908 22 888 q 80 958 51 938 q 142 991 108 978 q 210 1012 175 1004 q 276 1024 246 1019 q 431 1026 354 1035 q 581 985 508 1017 q 649 949 617 969 m 472 517 q 474 531 474 522 q 451 554 471 550 q 415 550 431 558 q 400 531 404 544 q 401 507 396 518 q 420 490 408 496 q 444 488 432 485 q 472 517 465 494 z "},"J":{"ha":826,"x_min":-7,"x_max":767,"o":"m 764 643 q 766 463 765 553 q 765 281 767 372 q 694 89 765 160 q 522 6 624 22 q 489 1 506 3 q 456 0 472 0 q 436 0 446 0 q 417 1 426 0 q 142 119 254 14 q 56 228 90 168 q 8 356 22 289 q 4 501 -7 428 q 50 636 15 574 q 126 716 78 686 q 225 746 174 746 q 299 728 260 746 q 381 644 357 700 q 393 513 406 588 q 388 474 390 493 q 392 439 386 454 q 417 411 397 421 l 417 471 l 417 515 l 417 689 l 417 863 q 432 935 417 904 q 472 988 447 967 q 527 1019 496 1008 q 590 1031 558 1031 q 653 1019 622 1031 q 709 988 685 1008 q 749 935 733 967 q 764 863 764 904 l 764 643 l 764 643 z "},"Ë":{"ha":750,"x_min":1,"x_max":706,"o":"m 535 340 q 629 309 585 338 q 693 233 674 281 q 705 176 704 206 q 696 117 706 146 q 667 65 686 89 q 622 29 649 42 q 567 11 596 15 q 510 4 539 7 q 351 0 432 -1 q 194 11 271 1 q 119 27 158 17 q 56 65 79 38 q 33 106 40 83 q 19 151 25 128 q 9 238 13 182 q 3 364 6 294 q 1 508 1 433 q 3 652 1 583 q 6 776 4 721 q 11 858 8 831 q 47 956 17 913 q 131 1014 76 999 q 190 1024 160 1022 q 249 1026 219 1025 q 349 1030 299 1028 q 449 1032 399 1032 q 541 1028 494 1031 q 626 1000 588 1025 q 683 940 663 976 q 704 860 704 903 q 690 794 704 824 q 653 742 676 764 q 600 706 631 719 q 535 690 569 693 q 463 688 499 688 q 392 692 428 689 q 393 679 393 685 q 393 668 393 674 q 464 670 429 669 q 535 668 499 671 q 617 641 583 664 q 666 585 650 618 q 682 515 682 553 q 665 445 682 478 q 616 390 649 413 q 535 363 583 367 q 467 360 501 360 q 399 364 433 361 l 399 340 q 467 342 433 342 q 535 340 501 343 m 174 1378 q 235 1365 207 1378 q 285 1330 264 1351 q 318 1279 306 1308 q 332 1218 331 1250 q 320 1157 333 1186 q 285 1106 307 1128 q 233 1072 263 1085 q 174 1060 204 1060 q 111 1072 140 1060 q 61 1106 82 1085 q 28 1157 40 1128 q 14 1218 15 1186 q 26 1279 13 1250 q 61 1330 39 1308 q 113 1365 83 1351 q 174 1378 142 1378 m 688 1218 q 676 1157 689 1186 q 640 1106 663 1128 q 588 1072 618 1085 q 528 1060 558 1060 q 466 1072 494 1060 q 416 1106 438 1085 q 382 1157 394 1128 q 368 1218 369 1186 q 380 1279 367 1250 q 415 1330 393 1308 q 467 1365 438 1351 q 528 1378 496 1378 q 590 1365 561 1378 q 640 1330 618 1351 q 674 1279 661 1308 q 688 1218 686 1250 z "},"Ä":{"ha":1007,"x_min":-4,"x_max":965,"o":"m 936 601 q 963 390 965 499 q 921 181 960 281 q 918 173 919 176 q 915 165 917 169 q 865 78 896 119 q 786 18 833 38 q 694 3 742 -1 q 606 36 646 8 q 531 147 549 78 q 524 196 524 172 l 524 199 q 515 204 522 203 q 498 206 507 206 q 481 207 489 207 q 469 207 472 207 q 439 206 454 207 q 408 200 424 204 q 406 199 406 200 q 404 196 404 199 q 405 172 406 185 q 403 149 404 160 q 382 82 397 113 q 338 31 367 51 q 249 0 297 1 q 158 22 200 -1 q 110 67 126 40 q 81 125 94 93 q 72 145 76 136 q 64 165 68 154 q 51 201 57 183 q 40 236 46 218 q 1 462 7 346 q 33 689 -4 578 q 65 767 46 726 q 151 890 100 833 q 268 983 201 946 q 365 1022 314 1010 q 467 1032 415 1033 q 569 1017 519 1031 q 665 978 619 1003 q 785 883 733 940 q 874 760 836 826 q 919 654 901 707 q 936 601 929 628 m 471 494 q 487 513 482 500 q 489 538 492 525 q 478 555 486 547 q 460 565 471 563 q 446 567 456 567 q 423 543 426 564 q 426 508 419 522 q 447 493 433 497 q 471 494 460 489 m 303 1378 q 365 1365 336 1378 q 414 1330 393 1351 q 447 1279 435 1308 q 461 1218 460 1250 q 449 1157 463 1186 q 414 1106 436 1128 q 363 1072 392 1085 q 303 1060 333 1060 q 240 1072 269 1060 q 190 1106 211 1085 q 157 1157 169 1128 q 143 1218 144 1186 q 155 1279 142 1250 q 190 1330 168 1308 q 242 1365 213 1351 q 303 1378 271 1378 m 817 1218 q 805 1157 818 1186 q 769 1106 792 1128 q 717 1072 747 1085 q 657 1060 688 1060 q 595 1072 624 1060 q 545 1106 567 1085 q 511 1157 524 1128 q 497 1218 499 1186 q 509 1279 496 1250 q 544 1330 522 1308 q 596 1365 567 1351 q 657 1378 625 1378 q 719 1365 690 1378 q 769 1330 747 1351 q 803 1279 790 1308 q 817 1218 815 1250 z "},"Ï":{"ha":479,"x_min":-125,"x_max":551,"o":"m 425 325 q 424 256 425 292 q 417 185 424 221 q 396 117 411 150 q 353 57 381 83 q 289 15 325 29 q 213 0 253 0 q 196 1 204 0 q 179 3 188 1 q 93 41 132 11 q 33 114 54 71 q 12 199 14 154 q 11 283 10 243 l 11 288 q 13 426 14 357 q 8 563 11 494 q 8 610 8 586 q 7 658 7 635 q 6 673 7 665 q 6 688 6 681 q 4 756 4 721 q 9 826 4 792 q 26 894 14 861 q 61 957 38 928 q 130 1013 89 993 q 215 1032 171 1032 q 231 1031 222 1032 q 246 1029 239 1031 q 358 965 314 1018 q 400 881 390 928 q 413 790 410 835 q 422 604 419 697 q 425 419 424 511 l 425 339 l 425 325 m 36 1378 q 98 1365 69 1378 q 147 1330 126 1351 q 181 1279 168 1308 q 194 1218 193 1250 q 183 1157 196 1186 q 147 1106 169 1128 q 96 1072 125 1085 q 36 1060 67 1060 q -26 1072 3 1060 q -76 1106 -56 1085 q -110 1157 -97 1128 q -124 1218 -122 1186 q -112 1279 -125 1250 q -76 1330 -99 1308 q -25 1365 -54 1351 q 36 1378 4 1378 m 550 1218 q 538 1157 551 1186 q 503 1106 525 1128 q 451 1072 481 1085 q 390 1060 421 1060 q 328 1072 357 1060 q 278 1106 300 1085 q 244 1157 257 1128 q 231 1218 232 1186 q 242 1279 229 1250 q 278 1330 256 1308 q 329 1365 300 1351 q 390 1378 358 1378 q 452 1365 424 1378 q 502 1330 481 1351 q 536 1279 524 1308 q 550 1218 549 1250 z "},"Ö":{"ha":1083,"x_min":-6,"x_max":1032,"o":"m 1000 714 q 1027 512 1032 615 q 979 314 1022 408 q 856 144 935 215 q 683 35 778 72 q 482 1 588 -1 q 278 53 376 3 q 96 210 167 108 q 7 433 25 311 q 10 610 -6 522 q 67 774 25 699 q 175 909 108 850 q 329 1000 242 968 q 528 1031 424 1035 q 726 990 632 1028 q 894 883 821 953 q 1000 714 968 814 m 542 518 q 543 532 543 522 q 520 555 540 551 q 485 551 500 558 q 469 531 474 544 q 471 507 465 518 q 489 491 476 496 q 514 489 501 486 q 531 499 524 492 q 542 518 539 507 m 335 1378 q 397 1365 368 1378 q 447 1330 425 1351 q 481 1279 468 1308 q 494 1218 493 1250 q 483 1157 496 1186 q 447 1106 469 1128 q 395 1072 425 1085 q 335 1060 365 1060 q 273 1072 301 1060 q 224 1106 244 1085 q 190 1157 203 1128 q 176 1218 178 1186 q 188 1279 175 1250 q 222 1330 200 1308 q 274 1365 244 1351 q 335 1378 303 1378 m 849 1218 q 837 1157 850 1186 q 801 1106 824 1128 q 750 1072 779 1085 q 690 1060 721 1060 q 628 1072 657 1060 q 578 1106 599 1085 q 544 1157 557 1128 q 531 1218 532 1186 q 542 1279 529 1250 q 578 1330 556 1308 q 629 1365 600 1351 q 690 1378 658 1378 q 752 1365 724 1378 q 801 1330 781 1351 q 835 1279 822 1308 q 849 1218 847 1250 z "},"Ü":{"ha":986,"x_min":0,"x_max":933,"o":"m 858 875 q 913 716 894 799 q 933 549 932 633 q 914 386 933 464 q 858 242 894 308 q 758 113 818 167 q 625 29 699 58 q 468 0 551 0 l 464 0 q 307 29 379 0 q 174 113 235 58 q 74 242 114 167 q 19 386 38 308 q 0 549 0 464 q 19 716 0 633 q 74 875 38 799 q 201 1018 128 985 q 267 1032 236 1032 q 368 1002 322 1032 q 433 924 414 972 q 429 747 463 853 q 423 730 426 739 q 417 710 419 721 q 388 615 401 664 q 386 526 375 567 q 419 476 396 490 q 467 463 443 463 q 514 476 490 463 q 546 526 538 490 q 544 615 557 567 q 515 710 531 664 q 503 747 508 731 q 499 924 469 853 q 565 1002 518 972 q 665 1032 611 1032 q 731 1018 699 1032 q 858 875 807 985 m 286 1378 q 349 1365 319 1378 q 399 1330 378 1351 q 432 1279 419 1308 q 446 1218 444 1250 q 434 1157 447 1186 q 399 1106 421 1128 q 347 1072 376 1085 q 286 1060 317 1060 q 224 1072 253 1060 q 175 1106 196 1085 q 142 1157 154 1128 q 128 1218 129 1186 q 139 1279 126 1250 q 174 1330 151 1308 q 225 1365 196 1351 q 286 1378 254 1378 m 800 1218 q 789 1157 801 1186 q 754 1106 776 1128 q 702 1072 732 1085 q 642 1060 672 1060 q 580 1072 608 1060 q 530 1106 551 1085 q 496 1157 508 1128 q 482 1218 483 1186 q 494 1279 481 1250 q 529 1330 507 1308 q 581 1365 551 1351 q 642 1378 610 1378 q 703 1365 675 1378 q 753 1330 732 1351 q 786 1279 774 1308 q 800 1218 799 1250 z "},"Õ":{"ha":1083,"x_min":-6,"x_max":1033,"o":"m 1001 715 q 1028 512 1033 615 q 979 314 1022 408 q 857 144 935 215 q 683 35 779 72 q 482 1 588 -1 q 278 53 376 3 q 96 210 167 108 q 7 433 25 311 q 10 610 -6 522 q 67 774 25 699 q 175 909 108 850 q 329 1000 242 968 q 528 1032 424 1035 q 726 992 632 1029 q 894 885 821 954 q 1001 715 968 815 m 542 518 q 543 532 543 522 q 520 555 540 551 q 485 551 500 558 q 469 531 474 544 q 471 507 465 518 q 490 491 478 496 q 514 489 501 486 q 531 499 524 492 q 542 518 539 507 m 826 1317 q 846 1222 857 1271 q 821 1168 839 1193 q 778 1124 803 1143 q 728 1091 754 1104 q 679 1071 701 1078 q 600 1060 639 1060 q 517 1071 561 1060 q 487 1081 501 1076 q 457 1090 472 1086 l 436 1099 q 424 1101 425 1101 q 414 1099 419 1101 q 401 1093 408 1096 q 378 1082 389 1086 q 325 1072 354 1072 q 294 1076 308 1072 q 228 1108 258 1083 q 185 1168 199 1133 q 178 1230 175 1193 q 222 1311 182 1267 q 278 1357 247 1338 q 346 1388 310 1376 q 508 1388 425 1411 q 538 1378 524 1383 q 568 1368 553 1374 q 589 1361 582 1363 q 597 1358 593 1360 q 601 1357 600 1357 q 624 1367 608 1357 q 635 1372 629 1369 q 647 1378 640 1375 q 700 1386 672 1386 q 715 1385 707 1386 q 731 1383 724 1385 q 786 1359 761 1376 q 826 1317 811 1342 z "},"Ñ":{"ha":875,"x_min":0,"x_max":831,"o":"m 831 324 q 829 251 831 290 q 819 174 828 213 q 793 101 811 136 q 740 40 775 67 q 624 0 689 0 q 508 42 558 0 q 400 181 472 69 q 376 110 394 143 q 332 52 358 76 q 272 14 306 28 q 201 0 239 0 q 125 17 163 0 q 14 146 42 53 q 1 219 3 182 q 0 292 0 257 l 0 293 q 3 433 0 364 q 8 569 6 501 q 10 607 10 589 q 11 643 10 625 q 16 740 14 692 q 21 838 18 789 q 47 933 25 890 q 104 1001 68 976 q 196 1032 147 1032 q 266 1015 233 1032 q 326 971 299 997 q 375 915 353 944 q 414 858 397 885 l 419 853 q 430 836 425 844 q 440 821 435 828 q 442 844 442 832 q 446 867 443 856 q 497 979 460 940 q 599 1029 539 1021 q 611 1031 606 1031 q 624 1031 617 1031 q 729 996 682 1031 q 793 906 776 961 q 806 833 800 881 q 815 726 811 785 q 822 605 819 668 q 827 488 825 542 q 830 394 829 433 q 831 346 831 356 l 831 324 m 728 1317 q 746 1222 757 1271 q 721 1168 739 1193 q 678 1124 703 1143 q 628 1091 654 1104 q 579 1071 601 1078 q 500 1060 539 1060 q 418 1071 460 1060 q 388 1081 403 1076 q 358 1090 374 1086 q 347 1094 351 1093 q 336 1099 342 1096 q 324 1101 328 1101 q 315 1099 319 1101 q 303 1093 310 1096 q 290 1088 296 1090 q 278 1082 285 1085 q 226 1072 254 1072 q 194 1076 208 1072 q 128 1108 158 1083 q 85 1168 99 1133 q 78 1230 75 1193 q 122 1311 82 1267 q 179 1357 147 1338 q 246 1388 211 1376 q 408 1388 325 1411 q 438 1378 424 1383 q 468 1368 453 1374 q 490 1361 481 1363 q 497 1358 493 1360 q 503 1357 500 1357 q 524 1367 508 1357 q 535 1372 529 1369 q 549 1378 542 1375 q 600 1386 574 1386 q 616 1385 608 1386 q 632 1383 624 1385 q 686 1359 661 1376 q 728 1317 711 1342 z "},"Ã":{"ha":1007,"x_min":-4,"x_max":965,"o":"m 938 603 q 963 391 965 500 q 922 182 960 282 q 919 175 919 179 q 915 167 918 171 q 865 80 896 121 q 786 19 833 39 q 694 5 742 0 q 606 38 646 10 q 531 149 549 79 q 524 197 524 174 l 524 200 q 515 206 522 204 q 498 208 507 207 q 481 208 489 208 q 469 208 472 208 q 439 207 454 208 q 408 201 424 206 q 406 200 406 201 q 404 197 404 200 q 405 174 406 186 q 403 150 404 161 q 382 83 397 114 q 338 32 367 53 q 249 1 299 3 q 158 24 200 0 q 110 69 126 42 q 81 128 94 96 q 72 147 76 138 q 64 167 68 156 q 51 202 57 185 q 40 238 46 219 q 1 464 7 347 q 33 690 -4 581 q 65 768 46 728 q 151 891 100 835 q 268 985 201 947 q 365 1023 314 1011 q 467 1033 415 1035 q 569 1018 519 1032 q 665 979 619 1004 q 785 885 733 942 q 874 761 838 828 q 899 709 888 735 q 921 656 910 683 q 929 629 925 642 q 938 603 933 617 m 471 496 q 487 514 482 501 q 489 539 492 526 q 478 556 486 549 q 460 567 471 564 q 447 568 456 568 q 424 545 428 565 q 426 510 419 525 q 447 494 433 499 q 471 496 460 490 m 794 1318 q 813 1224 824 1275 q 788 1169 806 1194 q 745 1125 769 1144 q 694 1092 721 1106 q 647 1072 668 1079 q 567 1061 606 1061 q 485 1072 526 1061 q 455 1083 469 1078 q 425 1092 440 1088 q 414 1096 419 1094 q 403 1100 408 1097 q 390 1103 394 1103 q 381 1100 386 1103 q 369 1094 376 1097 q 344 1083 357 1088 q 293 1074 321 1074 q 261 1078 278 1074 q 195 1110 225 1085 q 153 1169 165 1135 q 145 1231 142 1194 q 189 1313 149 1268 q 246 1358 214 1339 q 313 1389 278 1378 q 475 1389 392 1413 q 505 1380 490 1385 q 535 1369 519 1375 q 557 1363 547 1364 q 563 1360 560 1361 q 569 1358 567 1358 q 590 1368 575 1358 q 602 1374 596 1371 q 615 1379 608 1376 q 667 1388 640 1388 q 683 1387 675 1388 q 699 1385 690 1386 q 753 1360 728 1378 q 794 1318 778 1343 z "},"Â":{"ha":1007,"x_min":-4,"x_max":963,"o":"m 935 600 q 960 389 963 497 q 919 181 958 281 q 913 165 918 172 q 863 78 893 119 q 785 18 832 38 q 692 3 740 -1 q 604 36 644 8 q 556 85 575 57 q 529 146 538 114 q 525 171 526 158 q 522 196 524 183 l 522 199 q 513 203 521 201 q 497 206 506 206 q 481 207 489 207 q 468 207 472 207 q 438 205 453 207 q 407 200 422 203 q 404 199 406 200 l 404 196 q 404 172 404 183 q 401 147 404 160 q 381 82 397 113 q 336 31 365 51 q 249 0 297 1 q 158 22 200 -1 q 110 67 126 40 q 81 125 94 93 q 72 145 76 136 q 64 165 68 154 q 51 199 57 182 q 40 235 46 217 q 1 462 7 346 q 33 688 -4 578 q 65 765 46 725 q 151 888 100 832 q 268 981 201 944 q 466 1030 360 1033 q 664 975 572 1026 q 783 881 732 938 q 871 758 835 825 q 918 653 899 708 q 935 600 929 624 m 469 493 q 486 512 481 500 q 489 536 492 524 q 460 564 482 557 q 446 565 454 565 q 422 542 426 563 q 426 507 418 522 q 445 492 432 496 q 469 493 458 488 m 690 1338 q 757 1267 735 1310 q 761 1171 779 1224 q 733 1119 753 1143 q 688 1078 714 1094 q 633 1058 663 1063 q 572 1064 603 1053 q 525 1081 549 1072 q 478 1097 501 1089 l 382 1064 q 322 1058 351 1053 q 267 1078 292 1063 q 222 1119 242 1094 q 193 1171 203 1143 q 198 1267 176 1224 q 264 1338 219 1310 q 302 1359 276 1346 q 358 1385 328 1372 q 421 1407 389 1397 q 478 1417 453 1417 q 533 1407 501 1417 q 596 1385 565 1397 q 652 1359 626 1372 q 690 1338 678 1346 z "},"Ê":{"ha":750,"x_min":1,"x_max":704,"o":"m 533 340 q 628 309 583 338 q 692 232 672 281 q 703 174 703 204 q 694 117 704 144 q 667 65 685 89 q 622 29 649 42 q 566 11 594 15 q 508 4 538 7 q 351 0 431 -1 q 193 11 271 1 q 119 27 158 17 q 56 65 79 38 q 33 106 40 83 q 19 151 25 128 q 9 238 13 182 q 3 363 6 294 q 1 508 1 432 q 3 651 1 583 q 6 774 4 719 q 11 856 8 828 q 47 953 17 911 q 131 1011 76 996 q 190 1021 160 1019 q 249 1024 219 1022 q 349 1027 299 1025 q 449 1029 399 1029 q 540 1026 493 1029 q 626 997 586 1024 q 683 938 663 974 q 703 858 703 901 q 689 792 703 822 q 652 740 675 763 q 599 705 629 718 q 533 689 568 692 q 463 687 497 686 q 392 690 428 688 q 392 678 392 683 q 393 667 392 672 q 463 669 428 668 q 533 667 499 669 q 644 615 607 661 q 681 515 681 569 q 644 414 681 460 q 533 363 607 368 q 466 360 500 360 q 399 363 432 361 l 399 340 q 466 342 432 342 q 533 340 500 343 m 563 1338 q 628 1267 607 1310 q 632 1171 650 1224 q 604 1119 624 1143 q 559 1078 585 1094 q 503 1058 533 1063 q 443 1064 474 1053 q 396 1081 419 1072 q 349 1097 372 1089 q 301 1081 325 1089 q 254 1064 278 1072 q 194 1058 224 1053 q 138 1078 164 1063 q 93 1119 113 1094 q 64 1171 74 1143 q 69 1267 47 1224 q 135 1338 90 1310 q 173 1359 147 1346 q 229 1385 199 1372 q 292 1407 260 1397 q 349 1417 324 1417 q 405 1407 374 1417 q 467 1385 436 1397 q 524 1359 499 1372 q 563 1338 550 1346 z "},"Î":{"ha":479,"x_min":-86,"x_max":517,"o":"m 429 325 q 428 256 429 292 q 422 185 428 221 q 400 117 415 150 q 357 57 385 83 q 292 15 329 29 q 217 0 256 0 q 199 1 208 0 q 182 3 190 1 q 96 41 135 11 q 38 114 57 71 q 16 198 18 154 q 15 282 14 242 l 15 288 q 17 425 18 357 q 13 561 15 493 q 12 609 13 585 q 11 657 11 633 q 10 672 11 664 q 10 686 10 679 q 8 755 8 719 q 13 825 8 790 q 30 893 18 860 q 65 956 42 926 q 133 1010 93 990 q 219 1029 174 1029 q 234 1029 226 1029 q 249 1026 242 1029 q 361 964 318 1015 q 403 880 393 926 q 417 789 413 833 q 425 603 424 696 q 428 419 426 511 q 428 378 428 399 q 429 339 428 358 l 429 325 m 429 1338 q 495 1267 474 1310 q 500 1171 517 1224 q 471 1119 490 1143 q 426 1078 451 1094 q 370 1058 400 1063 q 310 1064 340 1053 q 263 1081 286 1072 q 215 1097 239 1089 q 168 1081 192 1089 q 121 1064 144 1072 q 60 1058 90 1053 q 5 1078 31 1063 q -40 1119 -21 1094 q -69 1171 -60 1143 q -65 1267 -86 1224 q 1 1338 -43 1310 q 40 1359 14 1346 q 96 1385 65 1372 q 158 1407 126 1397 q 215 1417 190 1417 q 272 1407 240 1417 q 335 1385 304 1397 q 391 1359 365 1372 q 429 1338 417 1346 z "},"Ô":{"ha":1083,"x_min":-6,"x_max":1031,"o":"m 999 713 q 1025 510 1031 614 q 976 313 1019 407 q 854 142 932 214 q 681 35 776 71 q 481 1 586 -1 q 278 53 376 3 q 96 209 167 108 q 7 432 25 310 q 10 608 -6 521 q 67 772 25 696 q 174 908 108 849 q 328 999 240 967 q 526 1029 422 1032 q 725 989 631 1026 q 893 882 819 951 q 999 713 967 813 m 540 517 q 542 531 542 521 q 519 553 539 550 q 483 550 499 557 q 468 531 472 543 q 471 507 464 518 q 488 490 476 496 q 513 488 500 485 q 531 498 524 490 q 540 517 538 506 m 724 1338 q 790 1267 768 1310 q 794 1171 811 1224 q 765 1119 785 1143 q 720 1078 746 1094 q 665 1058 694 1063 q 604 1064 635 1053 q 557 1081 581 1072 q 510 1097 533 1089 q 463 1081 486 1089 q 415 1064 439 1072 q 355 1058 385 1053 q 299 1078 325 1063 q 254 1119 274 1094 q 226 1171 235 1143 q 230 1267 208 1224 q 296 1338 251 1310 q 334 1359 308 1346 q 391 1385 360 1372 q 453 1407 422 1397 q 510 1417 485 1417 q 567 1407 535 1417 q 629 1385 599 1397 q 685 1359 660 1372 q 724 1338 711 1346 z "},"Û":{"ha":986,"x_min":0,"x_max":931,"o":"m 857 874 q 931 547 931 719 q 912 385 931 463 q 857 242 893 308 q 757 113 817 167 q 624 29 697 58 q 468 0 550 0 l 464 0 q 307 29 379 0 q 174 113 235 58 q 74 242 114 167 q 19 385 38 308 q 0 547 0 463 q 19 715 0 632 q 74 874 38 797 q 201 1015 128 985 q 267 1029 231 1029 q 367 999 321 1029 q 433 922 414 969 q 429 746 463 850 q 417 708 422 729 q 388 614 401 663 q 386 525 375 565 q 418 475 394 489 q 465 461 442 461 q 513 475 489 461 q 546 525 536 489 q 543 614 556 565 q 515 708 531 663 q 503 746 507 729 q 499 922 469 850 q 564 999 518 969 q 664 1029 610 1029 q 729 1015 701 1029 q 857 874 803 985 m 675 1338 q 742 1267 719 1310 q 746 1171 764 1224 q 718 1119 738 1143 q 673 1078 699 1094 q 617 1058 647 1063 q 557 1064 588 1053 l 461 1097 q 414 1081 438 1089 q 367 1064 390 1072 q 306 1058 336 1053 q 251 1078 276 1063 q 206 1119 225 1094 q 178 1171 186 1143 q 182 1267 160 1224 q 249 1338 204 1310 q 287 1359 261 1346 q 343 1385 313 1372 q 406 1407 374 1397 q 461 1417 438 1417 q 518 1407 486 1417 q 581 1385 550 1397 q 637 1359 611 1372 q 675 1338 663 1346 z "},"Å":{"ha":1007,"x_min":-4,"x_max":963,"o":"m 935 600 q 960 389 963 497 q 919 181 958 281 q 917 172 918 176 q 914 165 915 168 q 863 78 894 119 q 785 18 832 38 q 692 3 740 -1 q 606 36 644 8 q 556 85 575 57 q 529 146 538 114 q 525 171 526 158 q 522 196 524 183 l 522 199 q 513 203 521 201 q 497 206 506 206 q 481 207 489 207 q 468 207 472 207 q 438 205 453 207 q 407 200 422 203 q 404 199 406 200 l 404 196 q 404 172 404 183 q 401 147 404 160 q 381 82 397 113 q 336 31 365 51 q 249 0 297 1 q 158 22 200 -1 q 110 67 126 40 q 81 125 94 93 q 72 145 76 136 q 64 165 68 154 q 51 199 57 182 q 40 235 46 217 q 1 462 7 346 q 33 688 -4 578 q 65 765 46 725 q 151 888 100 832 q 268 981 201 944 q 466 1030 360 1033 q 664 975 572 1026 q 783 882 732 939 q 871 758 835 825 q 918 653 899 708 q 935 600 929 624 m 469 494 q 486 512 481 500 q 489 536 492 524 q 460 564 482 557 q 446 565 454 565 q 423 542 426 563 q 426 507 419 522 q 445 492 432 496 q 469 494 458 488 m 638 1217 q 626 1156 639 1185 q 590 1104 613 1126 q 539 1069 568 1082 q 479 1057 510 1057 q 417 1069 446 1057 q 367 1104 389 1082 q 333 1156 346 1126 q 319 1217 321 1185 q 331 1277 318 1249 q 367 1328 344 1306 q 418 1363 389 1350 q 479 1375 447 1375 q 541 1363 513 1375 q 590 1328 569 1350 q 624 1278 611 1307 q 638 1217 636 1249 m 508 1218 q 508 1232 511 1225 q 486 1255 506 1251 q 451 1251 467 1258 q 436 1232 440 1244 q 438 1208 432 1219 q 456 1192 443 1197 q 481 1189 468 1186 q 498 1199 490 1192 q 508 1218 506 1207 z "},"!":{"ha":444,"x_min":0,"x_max":374,"o":"m 15 858 q 66 980 18 932 q 186 1031 114 1028 q 253 1018 222 1032 q 306 980 283 1004 q 343 924 329 956 q 358 858 357 892 q 363 776 361 818 q 367 694 365 735 q 369 645 367 671 q 372 593 371 619 q 372 541 374 567 q 361 493 369 515 q 289 397 338 429 q 186 365 240 365 q 83 397 132 365 q 13 493 35 429 q 2 541 4 515 q 1 593 0 567 q 5 646 3 619 q 7 694 7 672 q 10 776 8 735 q 15 858 13 818 m 186 0 q 119 14 150 0 q 66 51 89 28 q 30 105 43 74 q 15 171 17 136 q 28 237 14 206 q 66 292 42 268 q 122 329 90 315 q 186 343 153 343 q 253 329 222 343 q 308 292 285 315 q 344 237 331 268 q 358 171 357 206 q 346 106 360 136 q 308 51 332 75 q 251 14 283 28 q 186 0 219 0 z "},".":{"ha":403,"x_min":0,"x_max":346,"o":"m 172 0 q 106 14 136 0 q 52 51 75 28 q 16 105 29 74 q 1 171 3 136 q 14 237 0 206 q 52 292 28 268 q 108 329 76 315 q 172 343 139 343 q 239 329 208 343 q 292 292 269 315 q 329 237 315 268 q 344 171 343 206 q 332 106 346 136 q 294 51 318 75 q 238 14 269 28 q 172 0 206 0 z "},":":{"ha":403,"x_min":-4,"x_max":347,"o":"m 174 0 q 99 19 133 0 q 40 67 64 38 q 6 135 17 97 q 6 213 -4 174 q 67 306 19 269 q 174 343 115 343 q 240 329 210 343 q 294 292 271 315 q 330 238 317 268 q 344 172 343 207 q 332 106 346 138 q 294 51 318 75 q 238 14 269 28 q 174 0 207 0 m 174 365 q 83 393 122 365 q 22 463 43 421 q 3 552 1 504 q 38 642 6 600 q 97 690 61 672 q 174 708 133 708 q 242 693 210 708 q 297 652 274 678 q 334 593 321 626 q 344 525 347 560 q 327 463 342 492 q 289 413 313 435 q 235 378 265 390 q 174 365 206 365 z "},"\"":{"ha":792,"x_min":0,"x_max":722,"o":"m 172 1031 q 231 1020 201 1031 q 283 991 260 1010 q 321 945 306 972 q 339 888 336 918 q 344 769 344 829 q 342 650 343 708 q 324 585 342 614 q 277 536 306 556 q 215 507 249 517 q 150 500 182 497 q 87 521 118 503 q 36 563 56 539 q 6 624 13 592 q 0 692 0 656 q 1 788 1 740 q 7 885 1 836 q 26 942 11 915 q 63 989 40 969 q 113 1019 85 1008 q 172 1031 142 1031 m 717 888 q 721 769 722 829 q 719 650 719 708 q 701 585 719 614 q 655 536 683 556 q 593 507 626 517 q 528 500 560 497 q 465 521 496 503 q 414 563 433 539 q 383 624 390 592 q 378 692 376 656 q 378 788 378 740 q 385 885 379 836 q 402 942 388 915 q 439 989 417 969 q 490 1019 461 1008 q 549 1031 518 1031 q 607 1020 578 1031 q 660 991 636 1010 q 699 945 683 972 q 717 888 714 918 z "},"'":{"ha":403,"x_min":0,"x_max":344,"o":"m 339 888 q 344 769 344 829 q 342 650 343 708 q 324 585 342 614 q 277 536 306 556 q 215 507 249 517 q 150 500 182 497 q 87 521 118 503 q 36 563 56 539 q 6 624 13 592 q 0 692 0 656 q 1 788 1 740 q 7 885 1 836 q 26 942 11 915 q 63 989 40 969 q 113 1019 85 1008 q 172 1031 142 1031 q 231 1020 201 1031 q 283 991 260 1010 q 321 945 306 972 q 339 888 336 918 z "}," ":{"ha":467,"x_min":0,"x_max":0,"o":""},"Ú":{"ha":986,"x_min":0,"x_max":933,"o":"m 300 1367 q 385 1386 343 1376 q 472 1406 428 1396 q 551 1421 511 1414 q 631 1422 590 1428 q 685 1404 660 1418 q 728 1369 711 1390 q 755 1320 746 1347 q 760 1264 764 1293 q 715 1172 753 1211 q 626 1121 678 1132 q 484 1091 556 1106 q 342 1061 413 1076 q 281 1065 314 1054 q 226 1092 249 1075 q 188 1138 204 1110 q 168 1193 171 1165 q 199 1306 161 1260 q 300 1367 236 1353 m 858 875 q 731 1018 807 985 q 665 1032 703 1032 q 565 1002 611 1032 q 499 924 518 972 q 503 749 469 853 q 509 730 506 739 q 515 710 513 721 q 544 616 531 665 q 546 526 557 567 q 514 476 538 490 q 467 463 490 463 q 419 476 443 463 q 386 526 396 490 q 388 616 375 567 q 417 710 401 665 q 423 730 419 721 q 429 749 426 739 q 433 925 463 853 q 368 1002 414 972 q 267 1032 322 1032 q 201 1018 231 1032 q 74 875 126 985 q 19 716 38 799 q 0 549 0 633 q 74 242 0 376 q 174 113 114 168 q 307 31 235 58 q 464 0 378 0 l 468 0 q 625 31 554 0 q 758 113 697 58 q 858 242 818 168 q 914 386 894 308 q 933 549 933 464 q 913 716 932 633 q 858 875 894 799 z "},"Ó":{"ha":1083,"x_min":-6,"x_max":1032,"o":"m 349 1367 q 434 1386 392 1376 q 519 1406 476 1396 q 599 1421 560 1414 q 679 1422 639 1428 q 733 1404 708 1418 q 776 1369 758 1390 q 803 1320 794 1347 q 807 1264 811 1293 q 763 1172 800 1211 q 675 1121 726 1132 q 533 1091 604 1106 q 390 1061 461 1076 q 330 1065 363 1054 q 275 1092 297 1075 q 236 1138 253 1110 q 217 1193 219 1165 q 247 1306 210 1260 q 349 1367 285 1353 m 1000 715 q 894 885 968 815 q 726 992 821 954 q 528 1032 632 1029 q 329 1001 424 1035 q 175 910 242 969 q 67 775 108 851 q 10 610 25 699 q 7 433 -6 522 q 96 210 25 311 q 278 53 167 108 q 482 1 376 3 q 683 35 588 -1 q 856 144 778 72 q 979 314 935 215 q 1027 512 1022 408 q 1000 715 1032 615 m 542 518 q 531 499 539 507 q 514 489 524 492 q 489 492 501 486 q 471 508 476 497 q 469 532 465 519 q 485 551 474 544 q 520 555 500 558 q 543 532 540 551 q 542 518 543 522 z "},"Í":{"ha":479,"x_min":-82,"x_max":521,"o":"m 57 1367 q 142 1386 100 1376 q 229 1406 185 1396 q 308 1421 268 1414 q 388 1422 347 1428 q 442 1404 417 1418 q 485 1369 468 1390 q 512 1320 503 1347 q 517 1264 521 1293 q 472 1172 510 1211 q 383 1121 435 1132 q 241 1091 313 1106 q 99 1061 169 1076 q 38 1065 71 1054 q -17 1092 6 1075 q -56 1138 -39 1110 q -75 1193 -72 1165 q -44 1306 -82 1260 q 57 1367 -7 1353 m 433 325 l 433 340 q 433 380 433 360 q 432 421 433 400 q 430 605 432 513 q 421 790 428 697 q 408 881 418 835 q 365 967 397 928 q 315 1007 344 990 q 254 1029 286 1024 q 238 1031 246 1031 q 224 1032 231 1032 q 138 1013 179 1032 q 69 957 97 993 q 34 894 46 928 q 17 827 22 861 q 13 758 13 793 q 14 689 13 722 l 14 658 q 15 610 15 635 q 17 563 15 586 q 20 426 19 494 q 19 289 21 357 l 19 283 q 20 199 18 243 q 42 115 22 156 q 100 42 61 71 q 186 4 139 13 q 221 0 203 0 q 297 15 261 0 q 361 57 333 29 q 404 118 389 85 q 426 187 419 151 q 433 258 432 222 q 433 325 433 293 z "},"É":{"ha":750,"x_min":1,"x_max":706,"o":"m 186 1367 q 273 1386 231 1376 q 358 1406 315 1396 q 438 1421 397 1414 q 518 1422 478 1428 q 572 1404 547 1418 q 615 1369 597 1390 q 641 1320 632 1347 q 646 1264 650 1293 q 601 1172 639 1211 q 513 1121 564 1132 q 371 1091 442 1106 q 228 1061 300 1076 q 167 1065 200 1054 q 113 1092 135 1075 q 74 1138 90 1110 q 54 1193 57 1165 q 86 1306 49 1260 q 186 1367 124 1353 m 535 342 q 467 344 501 344 q 399 340 433 343 l 399 364 q 467 362 433 363 q 535 364 501 361 q 616 390 583 367 q 665 447 649 414 q 682 517 682 479 q 666 587 682 554 q 617 642 650 619 q 535 669 583 665 q 464 671 499 672 q 393 668 429 669 q 393 680 393 675 q 392 692 393 685 q 463 689 428 690 q 535 690 499 688 q 600 706 569 693 q 653 742 631 719 q 690 794 676 764 q 704 860 704 824 q 683 940 704 904 q 626 1000 663 976 q 540 1028 586 1025 q 449 1032 494 1032 q 349 1030 399 1032 q 249 1026 299 1028 q 190 1024 219 1025 q 131 1014 160 1022 q 47 956 76 999 q 11 858 17 914 q 6 776 8 831 q 3 653 4 721 q 1 510 1 585 q 3 365 1 435 q 9 239 6 296 q 19 151 13 182 q 33 106 25 128 q 56 65 40 85 q 119 27 79 38 q 194 13 158 17 q 351 0 271 1 q 510 4 432 -1 q 567 12 539 7 q 622 29 596 17 q 667 66 649 43 q 696 117 686 89 q 705 176 706 146 q 693 233 704 206 q 629 310 674 282 q 535 342 585 338 z "},"Á":{"ha":1007,"x_min":-4,"x_max":965,"o":"m 315 1367 q 402 1386 360 1376 q 488 1406 444 1396 q 567 1421 526 1414 q 647 1422 607 1428 q 701 1404 676 1418 q 744 1369 726 1390 q 770 1320 761 1347 q 775 1264 779 1293 q 731 1172 768 1211 q 642 1121 693 1132 q 500 1091 571 1106 q 357 1061 429 1076 q 297 1065 329 1054 q 242 1092 264 1075 q 203 1138 219 1110 q 183 1193 186 1165 q 215 1306 178 1260 q 315 1367 253 1353 m 936 601 q 919 654 931 625 q 899 708 910 682 q 874 760 888 735 q 785 883 836 826 q 665 978 733 940 q 569 1017 619 1003 q 467 1032 519 1031 q 365 1022 415 1033 q 268 983 314 1010 q 151 890 201 946 q 65 767 100 835 q 48 728 56 747 q 33 690 40 710 q 1 463 -4 579 q 40 236 7 346 q 51 201 46 218 q 64 165 57 183 q 72 146 68 156 q 81 126 76 136 q 110 67 94 94 q 158 22 126 40 q 249 1 200 -1 q 338 31 297 3 q 382 83 367 51 q 403 149 397 114 q 405 172 404 160 q 404 196 406 185 q 406 200 404 199 q 408 201 407 200 q 439 206 424 204 q 469 207 454 208 q 481 207 472 207 q 498 206 489 207 q 515 204 507 206 q 524 199 522 203 l 524 196 q 531 147 524 172 q 558 85 539 114 q 606 38 576 57 q 694 5 646 10 q 786 18 742 0 q 865 79 833 38 q 915 165 896 121 q 918 174 917 169 q 921 182 919 178 q 963 390 960 282 q 936 601 965 499 m 471 494 q 447 493 460 489 q 426 508 433 497 q 423 544 419 524 q 446 567 426 564 q 460 565 456 567 q 478 555 471 563 q 489 538 486 547 q 487 513 492 525 q 471 494 482 501 z "},"Ù":{"ha":986,"x_min":0,"x_max":932,"o":"m 626 1365 q 728 1305 690 1351 q 758 1192 765 1258 q 740 1136 756 1164 q 701 1092 724 1108 q 646 1064 679 1074 q 585 1060 613 1054 q 443 1090 514 1075 q 301 1119 372 1104 q 213 1170 250 1131 q 168 1263 175 1210 q 173 1319 164 1292 q 199 1367 182 1346 q 242 1403 217 1389 q 296 1421 267 1417 q 376 1419 336 1426 q 456 1404 417 1413 q 541 1385 499 1394 q 626 1365 583 1375 m 857 875 q 913 716 893 799 q 932 549 932 633 q 858 242 932 376 q 758 113 818 167 q 625 31 697 58 q 468 0 554 0 l 464 0 q 307 31 378 0 q 174 113 235 58 q 74 242 114 167 q 0 549 0 376 q 19 716 0 633 q 74 875 38 799 q 201 1018 128 985 q 267 1031 232 1031 q 367 1001 321 1031 q 433 924 414 971 q 429 747 463 851 q 423 729 426 739 q 417 710 419 719 q 388 615 401 664 q 386 526 375 567 q 418 476 394 490 q 465 463 442 463 q 513 476 489 463 q 546 526 538 490 q 544 615 557 567 q 515 710 531 664 q 509 729 513 719 q 503 747 506 739 q 499 924 469 851 q 565 1001 518 971 q 665 1031 611 1031 q 731 1018 699 1031 q 857 875 806 985 z "},"Ò":{"ha":1083,"x_min":-6,"x_max":1032,"o":"m 675 1365 q 776 1305 739 1351 q 807 1192 814 1258 q 788 1136 804 1164 q 749 1092 771 1108 q 694 1064 726 1074 q 633 1060 661 1054 q 492 1090 563 1075 q 350 1119 421 1104 q 261 1170 299 1131 q 217 1263 224 1210 q 222 1319 213 1292 q 248 1367 231 1346 q 290 1403 265 1389 q 344 1421 315 1417 q 424 1419 385 1426 q 504 1404 464 1413 q 590 1385 547 1394 q 675 1365 632 1375 m 1000 714 q 1026 512 1032 615 q 978 314 1021 408 q 856 144 933 215 q 682 35 778 72 q 481 1 586 -1 q 278 53 376 3 q 96 210 167 108 q 7 433 25 311 q 10 610 -6 522 q 67 774 25 697 q 174 909 108 850 q 328 1000 240 968 q 527 1031 422 1033 q 726 990 632 1028 q 894 883 821 953 q 1000 714 968 814 m 540 518 q 542 532 543 526 q 519 555 539 551 q 485 551 500 558 q 469 531 474 544 q 471 507 465 518 q 489 491 476 496 q 513 489 501 486 q 531 499 524 492 q 540 518 538 507 z "},"Ì":{"ha":479,"x_min":-79,"x_max":522,"o":"m 383 1365 q 485 1305 447 1351 q 515 1192 522 1258 q 496 1136 513 1164 q 457 1092 479 1108 q 402 1064 435 1074 q 342 1060 369 1054 q 199 1090 271 1075 q 57 1119 128 1104 q -31 1170 6 1131 q -75 1263 -68 1210 q -70 1319 -79 1292 q -44 1367 -61 1346 q -1 1403 -26 1389 q 53 1421 24 1417 q 133 1419 93 1426 q 211 1404 172 1413 q 298 1385 256 1394 q 383 1365 340 1375 m 432 325 q 431 258 432 293 q 424 187 431 222 q 403 118 418 151 q 360 57 388 85 q 296 15 332 29 q 219 0 260 0 q 185 4 201 0 q 99 42 138 13 q 40 115 60 71 q 19 199 21 156 q 18 283 17 243 l 18 289 q 19 426 21 357 q 15 563 18 494 q 15 610 15 586 q 14 658 14 635 q 13 673 14 665 q 13 688 13 681 q 11 756 11 721 q 16 826 11 792 q 33 894 21 861 q 68 957 44 928 q 137 1011 96 992 q 222 1031 178 1031 q 238 1031 229 1031 q 253 1029 246 1031 q 315 1006 285 1022 q 364 965 344 990 q 406 881 396 928 q 419 790 417 835 q 428 604 426 697 q 431 419 431 511 q 432 380 432 400 q 432 339 432 360 l 432 325 z "},"È":{"ha":750,"x_min":1,"x_max":704,"o":"m 514 1365 q 615 1305 578 1351 q 646 1192 653 1258 q 626 1136 643 1164 q 588 1092 610 1108 q 533 1064 565 1074 q 472 1060 500 1054 q 330 1090 401 1075 q 188 1119 258 1104 q 99 1170 136 1131 q 56 1263 63 1210 q 60 1319 51 1292 q 86 1367 68 1346 q 129 1403 104 1389 q 183 1421 154 1417 q 263 1419 224 1426 q 342 1404 303 1413 q 428 1385 386 1394 q 514 1365 471 1375 m 535 340 q 628 310 585 338 q 692 233 672 282 q 703 176 703 206 q 694 117 704 146 q 667 65 685 89 q 622 29 649 42 q 567 12 596 17 q 508 4 538 7 q 351 0 431 -1 q 193 13 271 1 q 119 27 158 17 q 56 65 79 38 q 33 106 40 85 q 19 151 25 128 q 9 239 13 182 q 3 365 6 296 q 1 508 1 433 q 3 652 1 583 q 6 775 4 721 q 11 857 8 829 q 47 955 17 913 q 131 1013 76 997 q 190 1022 160 1021 q 249 1025 219 1024 q 349 1029 299 1028 q 449 1031 399 1031 q 540 1028 493 1031 q 626 1000 586 1025 q 683 940 663 976 q 704 860 704 903 q 690 794 704 824 q 653 742 676 764 q 599 706 631 719 q 535 690 568 692 q 463 688 499 688 q 392 690 428 689 q 392 679 392 685 q 393 668 393 674 q 464 670 429 669 q 535 668 499 671 q 616 641 583 664 q 665 585 649 618 q 682 515 682 553 q 665 445 682 478 q 616 390 649 413 q 535 363 583 367 q 467 360 500 360 q 399 364 433 361 l 399 340 q 467 342 433 342 q 535 340 500 343 z "},"À":{"ha":1007,"x_min":-4,"x_max":964,"o":"m 643 1365 q 743 1305 706 1351 q 775 1192 781 1258 q 756 1136 772 1164 q 717 1092 739 1108 q 662 1064 694 1074 q 601 1060 629 1054 q 459 1090 531 1075 q 317 1119 388 1104 q 228 1170 265 1131 q 185 1263 192 1210 q 189 1319 181 1292 q 215 1367 197 1346 q 258 1403 233 1389 q 313 1421 283 1417 q 392 1419 353 1426 q 471 1404 432 1413 q 557 1385 515 1394 q 643 1365 599 1375 m 936 601 q 961 390 964 499 q 921 182 958 282 q 917 174 918 178 q 914 165 917 169 q 863 79 894 121 q 785 18 832 38 q 693 5 740 0 q 606 38 646 10 q 557 85 575 57 q 529 147 539 114 q 525 171 526 158 q 524 196 524 183 q 523 197 524 197 q 522 199 522 197 q 513 204 521 203 q 497 206 506 206 q 481 207 489 207 q 469 207 472 207 q 438 206 454 207 q 407 200 422 204 l 406 200 q 404 196 404 199 q 401 149 406 175 q 382 83 397 114 q 338 31 367 51 q 249 1 297 3 q 158 22 200 -1 q 110 67 126 40 q 81 126 94 94 q 72 146 76 136 q 64 165 68 156 q 51 201 57 183 q 40 236 46 218 q 1 462 7 346 q 33 689 -4 578 q 65 767 46 726 q 151 890 100 833 q 268 982 201 946 q 467 1031 360 1033 q 665 976 574 1028 q 784 883 732 939 q 872 760 836 826 q 898 708 886 733 q 919 654 910 682 q 928 627 924 640 q 936 601 932 614 m 469 494 q 486 513 481 500 q 489 538 492 525 q 460 565 482 558 q 446 567 456 567 q 423 544 426 564 q 426 508 419 524 q 446 493 433 497 q 469 494 458 489 z "},"Ç":{"ha":1000,"x_min":0,"x_max":969,"o":"m 904 469 q 944 413 929 444 q 965 346 960 381 q 963 277 969 311 q 939 213 957 243 q 819 88 894 140 q 650 14 744 36 q 706 -60 686 -17 q 724 -151 725 -104 q 684 -274 724 -218 q 585 -358 644 -329 q 488 -386 540 -382 q 386 -371 435 -390 q 345 -347 364 -362 q 316 -310 326 -331 q 304 -267 306 -290 q 315 -221 303 -244 q 351 -183 328 -197 q 401 -168 375 -168 q 428 -171 414 -168 q 455 -175 442 -174 q 481 -174 468 -176 q 506 -164 494 -172 q 516 -150 513 -160 q 508 -136 519 -140 q 493 -135 503 -132 q 444 -141 469 -136 q 397 -147 419 -146 q 353 -138 374 -147 q 315 -104 332 -129 q 306 -33 293 -69 q 349 25 319 4 q 351 26 350 26 q 346 28 349 28 q 208 103 271 54 q 98 215 144 151 q 26 353 51 278 q 1 508 0 429 q 28 664 3 589 q 99 801 54 739 q 205 913 143 864 q 340 992 267 961 q 584 1028 458 1040 q 819 953 710 1017 q 913 878 871 924 q 956 769 954 832 q 928 667 957 715 q 851 593 900 618 q 707 586 782 558 q 668 603 688 593 q 629 620 649 613 q 589 631 610 628 q 547 629 568 635 q 474 574 500 617 q 457 528 463 554 q 463 481 451 501 q 488 456 471 464 q 524 447 504 447 q 559 453 542 447 q 593 468 576 460 q 635 494 614 481 q 679 517 656 508 q 771 531 722 535 q 843 513 808 528 q 904 469 878 497 z "},"a":{"ha":1007,"x_min":0,"x_max":967,"o":"m 940 596 q 961 468 956 535 q 960 334 967 401 q 931 203 953 267 q 872 88 910 140 q 817 34 849 56 q 748 5 785 13 q 674 3 711 -3 q 603 33 636 10 q 543 104 563 61 q 521 194 524 147 l 521 197 q 512 203 519 201 q 496 205 504 204 q 479 206 488 206 q 467 206 471 206 q 406 200 432 206 q 404 199 404 200 q 403 199 404 199 l 403 196 q 394 126 404 160 q 364 65 383 92 q 315 19 344 38 q 247 0 285 1 q 144 31 185 -3 q 77 114 103 64 q 38 222 51 164 q 15 328 24 281 q 1 486 0 407 q 22 640 3 565 q 80 783 42 715 q 176 910 118 851 q 287 988 226 958 q 412 1027 347 1018 q 542 1023 476 1036 q 671 975 608 1010 q 842 815 775 915 q 940 596 910 714 m 471 494 q 488 512 482 500 q 490 536 493 524 q 480 554 488 547 q 461 564 472 561 q 447 565 451 567 q 424 543 428 563 q 428 508 421 524 q 447 492 433 497 q 471 494 460 488 z "},"b":{"ha":854,"x_min":-1,"x_max":813,"o":"m 806 431 q 808 338 813 385 q 786 247 804 292 q 686 110 753 161 q 538 33 619 58 q 367 3 456 8 q 197 3 278 -3 q 126 15 163 4 q 61 47 90 26 q 15 97 32 67 q 1 171 -1 128 q 9 285 7 229 q 14 400 11 342 q 15 460 15 431 q 15 519 15 489 q 16 624 17 572 q 13 729 15 676 q 10 828 10 778 q 40 919 11 878 q 107 981 67 957 q 196 1017 147 1006 q 297 1031 244 1029 q 400 1024 349 1032 q 497 1001 451 1017 q 578 964 543 985 q 669 873 636 928 q 714 754 703 818 q 710 625 725 690 q 772 535 749 585 q 806 431 796 485 m 432 333 q 433 347 433 338 q 410 370 431 367 q 376 367 390 374 q 361 347 365 360 q 363 324 357 335 q 381 307 368 313 q 404 304 393 301 q 432 333 428 311 m 432 739 q 433 753 433 743 q 410 776 431 772 q 376 772 390 779 q 361 753 365 765 q 363 729 357 740 q 381 713 368 718 q 404 710 393 707 q 432 739 428 717 z "},"c":{"ha":1000,"x_min":0,"x_max":971,"o":"m 906 468 q 946 412 931 443 q 966 346 961 381 q 965 277 971 311 q 940 213 958 243 q 827 94 897 142 q 675 22 757 46 q 507 0 593 -1 q 346 28 421 1 q 208 103 271 54 q 98 215 144 151 q 26 353 51 278 q 1 508 0 429 q 28 663 3 589 q 99 801 54 738 q 205 913 143 864 q 342 992 267 961 q 585 1028 458 1040 q 819 953 711 1017 q 869 919 844 938 q 913 877 894 900 q 944 827 932 854 q 956 769 956 800 q 928 666 957 715 q 851 592 900 617 q 781 573 817 574 q 708 585 744 572 q 669 602 689 592 q 630 620 650 613 q 589 631 610 628 q 547 629 568 635 q 506 607 524 622 q 475 572 488 592 q 457 527 463 553 q 463 479 451 501 q 488 456 471 464 q 524 447 506 447 q 560 453 543 447 q 593 468 578 458 q 635 494 615 481 q 679 517 656 507 q 771 531 726 535 q 843 512 808 528 q 906 468 878 496 z "},"d":{"ha":944,"x_min":0,"x_max":889,"o":"m 649 949 q 778 831 724 900 q 860 679 832 761 q 889 508 889 597 q 856 335 889 419 q 758 178 821 246 q 613 67 694 110 q 440 8 532 24 q 254 7 347 -8 q 235 11 244 10 q 215 15 226 13 q 101 61 158 31 q 17 149 44 92 q 1 228 0 185 q 3 310 3 271 q 3 361 3 325 q 3 444 3 397 q 5 546 4 492 q 7 651 6 600 q 10 745 8 701 q 13 815 11 789 q 19 864 15 840 q 35 908 22 888 q 80 958 51 938 q 142 991 108 978 q 210 1012 175 1004 q 276 1024 246 1019 q 431 1026 354 1035 q 581 985 508 1017 q 649 949 617 969 m 472 517 q 474 531 474 522 q 451 554 471 550 q 415 550 431 558 q 400 531 404 544 q 401 507 396 518 q 420 490 408 496 q 444 488 432 485 q 472 517 465 494 z "},"e":{"ha":750,"x_min":1,"x_max":704,"o":"m 535 340 q 628 309 585 338 q 692 232 672 281 q 703 174 703 204 q 695 117 704 144 q 667 65 686 89 q 622 29 649 42 q 567 11 596 15 q 510 4 538 7 q 351 0 431 -1 q 193 11 271 1 q 119 27 158 17 q 56 65 79 38 q 33 106 40 83 q 19 151 25 128 q 9 238 13 182 q 3 364 6 294 q 1 508 1 433 q 3 651 1 583 q 6 774 4 719 q 11 857 8 829 q 47 955 17 913 q 131 1013 76 997 q 190 1022 160 1021 q 249 1025 219 1024 q 349 1028 299 1026 q 449 1031 399 1031 q 540 1027 494 1031 q 626 999 586 1024 q 683 939 663 975 q 704 860 704 903 q 690 794 704 824 q 653 742 676 764 q 599 706 631 719 q 535 690 568 692 q 463 688 499 688 q 392 690 428 689 q 392 679 392 685 q 393 667 393 674 q 464 670 429 669 q 535 668 499 671 q 616 641 583 664 q 665 585 649 618 q 682 515 682 553 q 665 445 682 478 q 616 390 649 413 q 535 363 583 367 q 467 360 500 360 q 399 363 433 361 l 399 340 q 467 342 433 342 q 535 340 500 343 z "},"f":{"ha":736,"x_min":1,"x_max":719,"o":"m 542 660 q 624 632 592 656 q 674 576 657 608 q 690 505 690 543 q 674 433 690 467 q 624 376 657 400 q 542 350 592 353 q 473 348 507 347 q 404 350 439 349 l 404 326 l 404 313 q 403 244 404 279 q 394 175 401 210 q 372 110 386 140 q 333 54 358 79 q 279 17 310 31 q 215 0 249 3 q 149 6 182 -3 q 90 36 117 15 q 38 95 58 60 q 10 171 18 131 q 5 235 7 186 q 2 351 3 283 q 2 494 1 418 q 4 642 3 571 q 8 771 6 714 q 15 856 11 828 q 33 924 21 892 q 76 979 46 957 q 146 1012 108 1003 q 222 1024 183 1021 q 356 1030 289 1026 q 489 1028 422 1033 q 575 1015 532 1025 q 653 978 618 1006 q 704 902 689 949 q 708 811 719 856 q 647 719 694 754 q 542 682 599 685 q 469 680 506 679 q 397 682 433 681 q 397 670 397 675 q 399 658 397 665 q 470 661 435 660 q 542 660 506 663 z "},"g":{"ha":1042,"x_min":0,"x_max":976,"o":"m 969 324 q 975 225 976 276 q 960 128 974 174 q 954 110 957 119 q 946 93 951 101 q 906 42 931 64 q 851 8 881 19 q 788 0 821 -3 q 725 22 754 3 q 715 30 719 26 q 703 33 710 33 q 692 32 694 33 q 648 19 669 25 q 603 8 626 13 q 372 19 485 -12 q 169 133 258 51 q 99 212 131 168 q 46 304 68 256 q 12 405 24 353 q 1 510 0 457 q 28 665 3 590 q 99 801 54 739 q 205 913 143 864 q 340 992 267 961 q 583 1028 458 1040 q 818 953 708 1017 q 867 919 843 938 q 910 878 892 901 q 941 828 929 856 q 953 771 953 801 q 926 667 954 717 q 849 593 897 618 q 778 574 814 575 q 706 586 742 574 q 667 603 686 593 q 628 622 647 614 q 588 632 608 629 q 546 629 567 635 q 503 608 522 622 q 474 574 485 593 q 456 528 461 554 q 461 481 450 503 q 487 457 469 465 q 522 449 504 449 q 559 455 542 449 q 592 469 576 461 q 633 495 613 482 q 678 518 654 508 q 769 532 725 536 q 872 501 824 528 q 943 422 921 475 q 960 374 954 399 q 969 324 965 350 z "},"h":{"ha":889,"x_min":0,"x_max":832,"o":"m 822 838 q 828 513 825 676 q 832 186 831 350 q 781 56 832 107 q 718 14 754 28 q 642 0 682 0 q 572 12 606 0 q 510 47 538 24 q 466 106 483 71 q 449 186 449 140 q 448 257 449 222 q 447 328 447 292 l 406 328 q 395 328 400 328 q 385 329 390 329 q 386 258 386 293 q 386 186 386 222 q 336 56 388 107 q 274 14 310 28 q 197 0 238 0 q 126 12 161 0 q 65 47 92 24 q 21 106 38 71 q 4 186 4 140 q 1 513 1 350 q 0 838 0 676 l 0 847 q 50 976 0 926 q 112 1017 76 1003 q 188 1031 147 1031 q 256 1019 222 1031 q 317 984 290 1007 q 361 927 344 961 q 378 847 378 893 l 379 729 l 394 729 l 444 729 l 444 847 q 494 976 444 924 q 556 1017 521 1003 q 632 1031 592 1031 q 701 1019 667 1031 q 762 984 735 1007 q 806 927 789 961 q 822 847 822 893 l 822 838 l 822 838 z "},"i":{"ha":479,"x_min":0,"x_max":421,"o":"m 421 325 q 420 256 421 292 q 413 185 419 221 q 392 117 407 150 q 349 57 376 83 q 284 15 321 29 q 208 0 247 0 q 190 1 199 0 q 174 3 182 1 q 88 41 126 11 q 29 114 49 71 q 8 198 10 154 q 7 282 6 242 l 7 288 q 8 426 8 357 q 4 563 7 494 q 3 610 3 586 q 1 657 3 633 l 1 688 q 0 756 0 721 q 5 826 0 792 q 22 893 10 860 q 56 956 33 926 q 124 1011 83 992 q 211 1031 165 1031 q 226 1030 218 1031 q 240 1028 233 1029 q 353 965 310 1017 q 394 881 385 928 q 408 790 404 835 q 417 604 415 697 q 419 419 418 511 q 419 379 419 400 q 421 339 419 358 l 421 325 l 421 325 z "},"j":{"ha":826,"x_min":-7,"x_max":767,"o":"m 764 643 q 766 463 765 553 q 765 281 767 372 q 694 89 765 160 q 522 6 624 22 q 489 1 506 3 q 456 0 472 0 q 436 0 446 0 q 417 1 426 0 q 142 119 254 14 q 56 228 90 168 q 8 356 22 289 q 4 501 -7 428 q 50 636 15 574 q 126 716 78 686 q 225 746 174 746 q 299 728 260 746 q 381 644 357 700 q 393 513 406 588 q 388 474 390 493 q 392 439 386 454 q 417 411 397 421 l 417 471 l 417 515 l 417 689 l 417 863 q 432 935 417 904 q 472 988 447 967 q 527 1019 496 1008 q 590 1031 558 1031 q 653 1019 622 1031 q 709 988 685 1008 q 749 935 733 967 q 764 863 764 904 l 764 643 l 764 643 z "},"k":{"ha":868,"x_min":0,"x_max":822,"o":"m 750 358 q 809 263 796 318 q 800 147 822 207 q 720 42 775 82 q 603 1 665 1 q 500 33 549 1 q 445 73 472 53 q 389 117 418 93 q 358 65 378 88 q 313 28 338 43 q 260 7 288 14 q 206 0 232 0 q 133 13 168 0 q 69 49 97 25 q 22 110 40 74 q 3 194 4 146 q 0 427 0 311 q 1 657 0 543 q 2 724 1 690 q 3 792 3 758 l 3 800 q 9 890 3 844 q 54 975 15 935 q 116 1016 81 1001 q 190 1031 151 1031 q 205 1031 197 1031 q 219 1029 213 1031 q 325 978 282 1019 q 379 875 368 936 l 476 968 q 608 1024 535 1024 q 724 986 669 1024 q 801 889 778 949 q 810 783 822 835 q 754 689 799 731 q 661 602 708 646 q 561 511 614 558 q 658 437 610 475 q 750 358 706 399 z "},"l":{"ha":729,"x_min":-1,"x_max":665,"o":"m 446 6 q 401 1 424 3 q 356 0 379 0 q 280 4 324 0 q 192 22 236 8 q 100 73 135 40 q 45 146 65 106 q 17 230 25 186 q 6 315 8 274 q 1 519 -1 419 q 7 706 3 618 q 8 725 8 713 q 17 826 11 774 q 49 928 24 879 q 117 1003 74 976 q 211 1031 161 1031 q 344 972 289 1031 q 380 919 367 947 q 399 861 393 890 q 406 804 404 832 q 407 754 407 776 l 407 668 q 408 560 408 615 q 411 451 408 506 l 411 421 q 428 422 419 421 q 443 422 436 422 q 453 422 449 422 q 461 421 457 421 q 516 413 485 419 q 581 383 547 407 q 643 309 621 354 q 665 215 665 264 q 647 131 665 168 q 597 68 628 94 q 526 26 565 42 q 446 6 488 11 z "},"m":{"ha":1042,"x_min":-4,"x_max":990,"o":"m 985 226 q 967 110 990 161 q 896 29 944 60 q 793 0 851 0 q 665 49 717 0 q 633 87 646 67 q 613 128 621 107 q 602 169 606 149 q 597 210 599 190 q 551 189 576 197 q 493 181 525 181 q 435 189 461 181 q 388 210 408 197 q 372 128 385 171 q 321 49 360 85 q 192 0 268 0 q 89 29 135 0 q 19 110 42 60 q 1 226 -4 161 q 8 360 6 293 q 14 493 11 426 q 16 557 15 525 q 18 621 17 589 q 24 717 21 665 q 31 821 26 768 q 125 996 42 940 q 239 1031 176 1031 q 323 1012 283 1031 q 390 958 363 993 q 442 887 414 929 q 493 806 469 844 q 544 887 517 844 q 594 958 571 929 q 663 1012 622 993 q 747 1031 703 1031 q 861 996 807 1031 q 954 821 943 940 q 962 717 960 768 q 967 621 964 665 q 970 556 969 589 q 972 493 971 524 q 977 360 975 426 q 985 226 979 293 z "},"n":{"ha":875,"x_min":0,"x_max":829,"o":"m 829 322 q 828 251 829 289 q 819 174 828 213 q 792 101 811 136 q 739 40 774 67 q 685 10 715 21 q 624 0 656 0 q 507 42 557 0 q 400 181 469 72 q 375 109 393 142 q 331 52 357 76 q 271 14 304 28 q 201 0 238 0 q 125 17 163 0 q 14 146 42 53 q 1 219 3 182 q 0 292 0 257 l 0 293 q 3 432 0 363 q 8 568 6 501 q 10 606 10 588 q 11 643 10 624 q 16 740 14 692 q 21 836 18 788 q 47 932 25 889 q 104 1000 68 975 q 196 1031 147 1031 q 266 1013 233 1031 q 326 970 299 996 q 374 914 353 944 q 414 858 396 883 l 418 851 q 429 835 424 843 q 440 819 435 828 q 442 842 442 831 q 446 867 443 854 q 497 978 460 939 q 597 1028 539 1019 q 610 1029 604 1029 q 624 1029 617 1029 q 729 994 682 1029 q 792 904 776 960 q 804 833 799 881 q 814 726 810 785 q 821 605 818 668 q 826 488 824 542 q 828 394 828 433 q 829 346 829 356 l 829 322 l 829 322 z "},"o":{"ha":1083,"x_min":-6,"x_max":1032,"o":"m 1000 714 q 1026 512 1032 615 q 978 313 1021 408 q 856 142 933 214 q 683 35 778 71 q 482 1 588 -1 q 278 53 376 3 q 96 209 167 108 q 7 432 25 310 q 10 609 -6 521 q 67 774 25 697 q 174 909 108 850 q 328 1000 240 968 q 527 1031 422 1033 q 726 990 632 1028 q 894 883 821 953 q 1000 714 968 814 m 540 517 q 542 531 543 526 q 519 554 539 550 q 485 550 500 558 q 469 531 474 544 q 471 507 465 518 q 489 490 476 496 q 513 488 501 485 q 540 517 535 494 z "},"p":{"ha":792,"x_min":0,"x_max":757,"o":"m 738 694 q 713 490 757 585 q 647 397 689 440 q 549 324 604 353 q 478 294 514 306 q 404 281 442 283 l 404 278 q 404 265 404 271 q 406 251 404 258 q 406 224 406 238 q 407 197 407 211 q 403 157 406 175 q 394 122 401 139 q 328 33 376 67 q 217 0 281 0 q 107 31 157 0 q 58 74 78 49 q 29 132 39 100 q 22 186 22 160 q 21 236 21 213 l 21 238 l 21 339 q 15 528 19 432 q 3 724 10 624 l 3 729 q 1 775 1 751 q 3 822 0 799 q 17 870 7 846 q 49 918 28 894 q 101 963 72 944 q 160 994 131 982 q 217 1014 190 1007 q 265 1025 244 1021 q 299 1029 282 1028 q 333 1031 317 1031 q 517 988 431 1031 q 661 868 603 944 q 738 694 721 789 m 443 649 q 444 661 444 653 q 424 681 442 678 q 393 678 406 685 q 380 661 383 672 q 382 640 376 650 q 397 625 386 629 q 418 624 407 621 q 434 633 428 626 q 443 649 440 640 z "},"q":{"ha":1104,"x_min":-11,"x_max":1079,"o":"m 1018 332 q 1066 246 1053 296 q 1067 147 1079 196 q 1015 60 1053 97 q 928 10 978 22 q 827 10 878 -4 q 740 63 776 25 q 628 16 688 32 q 507 -1 568 0 q 386 13 446 -1 q 272 56 326 26 q 93 215 164 113 q 4 440 22 318 q 21 658 -11 551 q 94 815 46 746 q 210 934 143 885 q 358 1008 276 983 q 531 1031 440 1033 q 658 1012 594 1028 q 777 967 721 996 q 881 894 833 938 q 961 797 928 851 q 1026 592 1018 703 q 1003 375 1033 481 q 1000 365 1001 369 q 1000 354 999 360 q 1015 336 1003 346 q 1018 332 1015 335 m 540 518 q 542 531 543 526 q 519 554 539 550 q 485 550 499 558 q 469 531 474 544 q 471 507 465 518 q 489 490 476 496 q 513 489 501 485 q 531 499 524 492 q 540 518 538 507 z "},"r":{"ha":792,"x_min":0,"x_max":751,"o":"m 707 494 q 654 414 688 451 q 576 349 621 376 q 667 260 650 293 q 684 214 679 239 q 686 163 689 189 q 667 100 682 129 q 628 49 653 71 q 574 16 604 28 q 508 4 543 4 q 436 19 468 4 q 394 43 414 29 q 357 72 375 57 q 210 0 300 0 q 154 8 182 0 q 102 31 126 15 q 58 70 78 46 q 31 128 39 94 q 22 181 24 154 q 21 231 21 207 l 21 232 l 21 336 q 15 529 19 431 q 3 729 11 628 l 3 735 q 1 780 1 757 q 3 826 0 803 q 17 873 7 850 q 47 919 26 896 q 100 965 71 946 q 158 995 129 983 q 215 1014 188 1007 q 263 1025 242 1021 q 296 1029 279 1028 q 329 1031 313 1031 q 511 988 425 1031 q 656 869 597 946 q 732 697 715 792 q 707 494 751 588 m 442 651 q 443 664 443 656 q 422 685 440 682 q 390 682 404 689 q 377 665 381 676 q 379 643 374 653 q 394 627 383 632 q 417 625 406 622 q 432 635 425 628 q 442 651 439 642 z "},"s":{"ha":847,"x_min":-4,"x_max":808,"o":"m 538 625 q 526 619 526 625 q 525 613 525 617 q 531 603 525 608 q 551 590 538 597 q 593 572 565 582 q 606 568 601 569 q 722 485 672 543 q 779 374 764 435 q 779 254 794 313 q 719 139 764 192 q 611 54 674 86 q 498 13 558 26 q 375 0 438 0 q 313 4 343 0 q 160 49 228 14 q 51 140 93 83 q 8 232 21 182 q 4 329 -4 282 q 18 374 8 351 q 44 415 28 397 q 81 444 60 433 q 126 456 101 456 q 172 447 150 456 q 213 426 193 438 q 226 419 219 422 q 239 413 232 415 q 252 408 244 410 q 267 406 260 406 q 276 407 275 406 q 279 411 278 408 q 279 419 279 414 q 274 429 279 424 q 253 442 268 435 q 211 460 239 450 l 199 464 q 137 497 167 475 q 82 546 107 518 q 26 657 40 596 q 26 776 11 718 q 87 892 42 839 q 194 976 132 946 q 214 986 200 981 q 433 1031 315 1031 l 449 1031 q 497 1026 472 1031 q 544 1018 521 1024 q 590 1006 568 1013 q 754 890 696 969 q 797 799 785 849 q 800 701 808 750 q 786 656 796 678 q 761 615 776 633 q 725 586 746 597 q 679 575 704 575 l 678 575 q 633 584 654 575 q 592 604 611 593 q 579 612 585 608 q 567 618 574 615 q 538 625 556 625 z "},"t":{"ha":875,"x_min":-4,"x_max":843,"o":"m 831 875 q 833 776 843 826 q 792 686 822 726 q 721 628 763 649 q 631 607 679 607 l 629 607 q 631 561 629 592 q 633 491 632 531 q 635 408 635 451 q 637 323 636 364 q 638 249 638 282 q 636 197 638 215 q 616 119 633 156 q 569 57 599 83 q 503 15 540 31 q 424 0 465 0 q 340 17 382 0 q 225 156 250 54 q 214 245 214 200 q 215 335 214 290 q 217 428 217 381 q 217 519 217 475 l 217 608 q 122 628 168 610 q 43 688 75 647 q 5 772 14 725 q 8 865 -4 818 q 78 975 25 932 q 200 1021 131 1018 q 428 1028 324 1025 q 631 1031 533 1031 l 632 1031 q 699 1019 667 1031 q 758 988 732 1008 q 803 938 785 967 q 831 875 822 910 z "},"u":{"ha":986,"x_min":0,"x_max":932,"o":"m 858 874 q 913 715 894 797 q 932 547 932 632 q 913 385 932 463 q 858 242 894 308 q 758 113 818 167 q 625 29 697 58 q 468 0 551 0 l 464 0 q 307 29 379 0 q 174 113 235 58 q 74 242 114 167 q 19 385 38 308 q 0 547 0 463 q 19 715 0 632 q 74 874 38 797 q 201 1017 126 983 q 267 1031 231 1031 q 367 1001 321 1031 q 433 924 414 971 q 429 747 463 851 l 417 710 q 388 615 401 664 q 386 526 375 567 q 418 476 394 490 q 465 461 442 461 q 513 476 489 461 q 546 526 538 490 q 544 615 557 567 q 515 710 531 664 l 503 747 q 499 924 469 851 q 565 1001 518 971 q 665 1031 611 1031 q 731 1017 701 1031 q 858 874 806 983 z "},"v":{"ha":1042,"x_min":0,"x_max":994,"o":"m 990 835 q 990 775 994 804 q 978 719 986 746 q 958 669 969 693 q 938 625 947 646 q 884 520 910 572 q 832 415 858 468 l 831 414 q 783 318 808 368 q 733 218 758 268 q 728 209 731 214 q 724 200 726 204 l 724 199 q 699 150 713 175 q 669 101 686 125 q 628 56 651 76 q 576 21 606 35 q 489 0 536 0 q 401 19 444 0 q 325 72 357 38 q 250 178 278 121 q 199 293 222 235 q 185 327 192 311 q 172 358 179 343 q 99 524 136 438 q 21 710 61 610 q 1 814 0 761 q 24 911 1 867 q 160 1022 65 994 q 217 1029 190 1029 q 350 985 293 1029 q 415 909 392 953 q 453 826 438 865 l 454 824 q 469 788 461 806 q 485 753 476 771 l 531 844 q 574 921 549 879 q 643 992 600 963 q 771 1031 699 1031 q 861 1011 818 1031 q 874 1005 868 1008 q 885 999 879 1001 q 957 928 929 971 q 990 835 985 885 z "},"w":{"ha":1042,"x_min":-4,"x_max":990,"o":"m 985 804 q 977 671 979 738 q 972 538 975 604 q 970 474 971 507 q 967 410 969 442 q 962 314 964 365 q 954 210 960 263 q 861 35 943 90 q 747 0 807 0 q 663 19 703 0 q 594 72 622 38 q 544 144 571 101 q 493 225 517 186 q 442 144 469 186 q 390 72 414 101 q 323 19 363 38 q 239 0 283 0 q 125 35 176 0 q 31 210 42 90 q 24 314 26 263 q 18 410 21 365 q 16 474 17 442 q 14 538 15 506 q 8 671 11 604 q 1 804 6 738 q 19 920 -4 869 q 89 1001 42 971 q 192 1031 135 1031 q 321 982 268 1031 q 372 903 360 946 q 388 821 385 860 q 435 842 408 833 q 493 850 461 850 q 551 842 525 850 q 597 821 576 835 q 602 861 599 840 q 613 903 606 882 q 633 944 621 924 q 665 982 646 964 q 793 1031 717 1031 q 896 1001 851 1031 q 967 920 944 971 q 985 804 990 869 z "},"x":{"ha":1000,"x_min":-3,"x_max":954,"o":"m 839 611 q 833 606 836 610 q 825 596 831 601 q 780 546 799 568 q 747 508 761 524 q 800 447 774 478 q 853 383 826 415 q 858 376 856 379 q 864 369 861 372 q 914 301 889 340 q 940 208 939 263 q 901 84 942 140 q 792 7 860 28 q 736 -1 763 -1 q 681 8 707 -1 q 634 30 656 17 q 595 60 613 43 q 565 92 578 76 q 558 100 563 94 q 546 113 553 106 q 513 149 532 128 q 475 192 493 171 q 474 190 475 190 q 406 109 442 150 q 328 39 371 68 q 210 0 276 0 q 67 58 125 0 q 24 123 39 88 q 9 196 10 158 q 22 272 8 233 q 63 343 35 310 q 128 420 94 379 q 203 510 163 461 q 153 565 182 533 q 106 617 125 596 l 99 625 q 38 701 68 658 q 1 804 7 744 q 19 904 -3 857 q 83 983 42 951 q 215 1026 142 1026 q 298 1010 260 1026 q 363 963 336 993 q 419 897 390 929 q 475 831 447 864 q 531 897 503 864 q 588 963 560 929 q 652 1012 615 994 q 731 1029 689 1029 q 825 1007 779 1029 q 903 944 871 985 q 943 862 932 906 q 943 774 954 818 q 906 692 932 726 q 854 629 881 657 q 846 619 850 624 q 839 611 842 615 z "},"y":{"ha":1007,"x_min":-3,"x_max":960,"o":"m 939 894 q 948 780 960 839 q 894 672 936 721 l 885 661 q 833 601 858 631 q 779 540 807 571 q 759 519 769 529 q 739 497 749 508 q 708 466 724 482 q 682 435 693 450 q 680 397 681 422 q 679 344 679 372 q 680 289 679 315 q 681 246 681 263 q 682 219 682 231 q 682 200 682 207 q 626 60 682 115 q 559 16 599 32 q 476 0 519 0 q 393 16 432 0 q 326 60 354 32 q 271 200 271 115 q 271 311 271 254 q 272 432 271 368 q 247 461 264 443 q 221 489 231 479 q 212 499 215 494 q 206 506 208 503 q 155 563 179 535 q 110 614 131 590 q 102 622 106 618 q 94 631 99 626 q 59 672 78 650 q 26 719 40 693 q 5 776 13 746 q 1 842 -3 806 q 38 939 8 894 q 117 1008 68 983 q 214 1031 164 1031 q 364 965 307 1031 l 371 957 q 424 894 397 925 q 476 831 450 863 q 496 854 488 842 q 535 901 515 878 q 575 947 556 924 q 651 1009 608 988 q 743 1031 694 1031 q 760 1030 751 1031 q 778 1028 768 1029 q 839 1007 810 1022 q 892 968 868 992 q 939 894 925 935 z "},"z":{"ha":868,"x_min":-6,"x_max":817,"o":"m 611 419 q 712 395 668 419 q 783 325 756 371 q 813 210 813 272 q 783 94 813 147 q 712 24 756 49 q 611 0 668 0 l 610 0 l 463 0 l 381 0 q 322 0 349 0 q 272 1 296 0 q 207 6 242 1 q 139 21 172 10 q 76 53 106 32 q 25 108 46 74 q 1 226 -6 164 q 51 351 7 289 q 113 444 83 397 q 172 536 143 490 q 197 576 185 556 q 224 617 210 597 l 201 617 q 110 640 153 618 q 40 703 68 663 q 5 792 11 743 q 14 889 -1 840 q 85 988 35 951 q 201 1025 136 1024 l 611 1031 q 690 1015 653 1031 q 753 973 726 1000 q 797 910 781 946 q 815 832 814 874 q 791 728 817 776 q 736 638 765 681 q 731 629 733 633 q 726 622 729 625 q 660 525 694 575 q 590 419 626 475 l 610 419 l 611 419 l 611 419 z "},"à":{"ha":1007,"x_min":-4,"x_max":964,"o":"m 643 1365 q 743 1305 706 1351 q 775 1192 781 1258 q 756 1136 772 1164 q 717 1092 739 1108 q 662 1064 694 1074 q 601 1060 629 1054 q 459 1090 531 1075 q 317 1119 388 1104 q 228 1170 265 1131 q 185 1263 192 1210 q 189 1319 181 1292 q 215 1367 197 1346 q 258 1403 233 1389 q 313 1421 283 1417 q 392 1419 353 1426 q 471 1404 432 1413 q 557 1385 515 1394 q 643 1365 599 1375 m 936 601 q 961 390 964 499 q 921 182 958 282 q 917 174 918 178 q 914 165 917 169 q 863 79 894 121 q 785 18 832 38 q 693 5 740 0 q 606 38 646 10 q 557 85 575 57 q 529 147 539 114 q 525 171 526 158 q 524 196 524 183 q 523 197 524 197 q 522 199 522 197 q 513 204 521 203 q 497 206 506 206 q 481 207 489 207 q 469 207 472 207 q 438 206 454 207 q 407 200 422 204 l 406 200 q 404 196 404 199 q 401 149 406 175 q 382 83 397 114 q 338 31 367 51 q 249 1 297 3 q 158 22 200 -1 q 110 67 126 40 q 81 126 94 94 q 72 146 76 136 q 64 165 68 156 q 51 201 57 183 q 40 236 46 218 q 1 462 7 346 q 33 689 -4 578 q 65 767 46 726 q 151 890 100 833 q 268 982 201 946 q 467 1031 360 1033 q 665 976 574 1028 q 784 883 732 939 q 872 760 836 826 q 898 708 886 733 q 919 654 910 682 q 928 627 924 640 q 936 601 932 614 m 469 494 q 486 513 481 500 q 489 538 492 525 q 460 565 482 558 q 446 567 456 567 q 423 544 426 564 q 426 508 419 524 q 446 493 433 497 q 469 494 458 489 z "},"á":{"ha":1007,"x_min":-4,"x_max":965,"o":"m 315 1367 q 402 1386 360 1376 q 488 1406 444 1396 q 567 1421 526 1414 q 647 1422 607 1428 q 701 1404 676 1418 q 744 1369 726 1390 q 770 1320 761 1347 q 775 1264 779 1293 q 731 1172 768 1211 q 642 1121 693 1132 q 500 1091 571 1106 q 357 1061 429 1076 q 297 1065 329 1054 q 242 1092 264 1075 q 203 1138 219 1110 q 183 1193 186 1165 q 215 1306 178 1260 q 315 1367 253 1353 m 936 601 q 919 654 931 625 q 899 708 910 682 q 874 760 888 735 q 785 883 836 826 q 665 978 733 940 q 569 1017 619 1003 q 467 1032 519 1031 q 365 1022 415 1033 q 268 983 314 1010 q 151 890 201 946 q 65 767 100 835 q 48 728 56 747 q 33 690 40 710 q 1 463 -4 579 q 40 236 7 346 q 51 201 46 218 q 64 165 57 183 q 72 146 68 156 q 81 126 76 136 q 110 67 94 94 q 158 22 126 40 q 249 1 200 -1 q 338 31 297 3 q 382 83 367 51 q 403 149 397 114 q 405 172 404 160 q 404 196 406 185 q 406 200 404 199 q 408 201 407 200 q 439 206 424 204 q 469 207 454 208 q 481 207 472 207 q 498 206 489 207 q 515 204 507 206 q 524 199 522 203 l 524 196 q 531 147 524 172 q 558 85 539 114 q 606 38 576 57 q 694 5 646 10 q 786 18 742 0 q 865 79 833 38 q 915 165 896 121 q 918 174 917 169 q 921 182 919 178 q 963 390 960 282 q 936 601 965 499 m 471 494 q 447 493 460 489 q 426 508 433 497 q 423 544 419 524 q 446 567 426 564 q 460 565 456 567 q 478 555 471 563 q 489 538 486 547 q 487 513 492 525 q 471 494 482 501 z "},"â":{"ha":1007,"x_min":-4,"x_max":963,"o":"m 935 600 q 960 389 963 497 q 919 181 958 281 q 913 165 918 172 q 863 78 893 119 q 785 18 832 38 q 692 3 740 -1 q 604 36 644 8 q 556 85 575 57 q 529 146 538 114 q 525 171 526 158 q 522 196 524 183 l 522 199 q 513 203 521 201 q 497 206 506 206 q 481 207 489 207 q 468 207 472 207 q 438 205 453 207 q 407 200 422 203 q 404 199 406 200 l 404 196 q 404 172 404 183 q 401 147 404 160 q 381 82 397 113 q 336 31 365 51 q 249 0 297 1 q 158 22 200 -1 q 110 67 126 40 q 81 125 94 93 q 72 145 76 136 q 64 165 68 154 q 51 199 57 182 q 40 235 46 217 q 1 462 7 346 q 33 688 -4 578 q 65 765 46 725 q 151 888 100 832 q 268 981 201 944 q 466 1030 360 1033 q 664 975 572 1026 q 783 881 732 938 q 871 758 835 825 q 918 653 899 708 q 935 600 929 624 m 469 493 q 486 512 481 500 q 489 536 492 524 q 460 564 482 557 q 446 565 454 565 q 422 542 426 563 q 426 507 418 522 q 445 492 432 496 q 469 493 458 488 m 690 1338 q 757 1267 735 1310 q 761 1171 779 1224 q 733 1119 753 1143 q 688 1078 714 1094 q 633 1058 663 1063 q 572 1064 603 1053 q 525 1081 549 1072 q 478 1097 501 1089 l 382 1064 q 322 1058 351 1053 q 267 1078 292 1063 q 222 1119 242 1094 q 193 1171 203 1143 q 198 1267 176 1224 q 264 1338 219 1310 q 302 1359 276 1346 q 358 1385 328 1372 q 421 1407 389 1397 q 478 1417 453 1417 q 533 1407 501 1417 q 596 1385 565 1397 q 652 1359 626 1372 q 690 1338 678 1346 z "},"ã":{"ha":1007,"x_min":-4,"x_max":965,"o":"m 938 603 q 963 391 965 500 q 922 182 960 282 q 919 175 919 179 q 915 167 918 171 q 865 80 896 121 q 786 19 833 39 q 694 5 742 0 q 606 38 646 10 q 531 149 549 79 q 524 197 524 174 l 524 200 q 515 206 522 204 q 498 208 507 207 q 481 208 489 208 q 469 208 472 208 q 439 207 454 208 q 408 201 424 206 q 406 200 406 201 q 404 197 404 200 q 405 174 406 186 q 403 150 404 161 q 382 83 397 114 q 338 32 367 53 q 249 1 299 3 q 158 24 200 0 q 110 69 126 42 q 81 128 94 96 q 72 147 76 138 q 64 167 68 156 q 51 202 57 185 q 40 238 46 219 q 1 464 7 347 q 33 690 -4 581 q 65 768 46 728 q 151 891 100 835 q 268 985 201 947 q 365 1023 314 1011 q 467 1033 415 1035 q 569 1018 519 1032 q 665 979 619 1004 q 785 885 733 942 q 874 761 838 828 q 899 709 888 735 q 921 656 910 683 q 929 629 925 642 q 938 603 933 617 m 471 496 q 487 514 482 501 q 489 539 492 526 q 478 556 486 549 q 460 567 471 564 q 447 568 456 568 q 424 545 428 565 q 426 510 419 525 q 447 494 433 499 q 471 496 460 490 m 794 1318 q 813 1224 824 1275 q 788 1169 806 1194 q 745 1125 769 1144 q 694 1092 721 1106 q 647 1072 668 1079 q 567 1061 606 1061 q 485 1072 526 1061 q 455 1083 469 1078 q 425 1092 440 1088 q 414 1096 419 1094 q 403 1100 408 1097 q 390 1103 394 1103 q 381 1100 386 1103 q 369 1094 376 1097 q 344 1083 357 1088 q 293 1074 321 1074 q 261 1078 278 1074 q 195 1110 225 1085 q 153 1169 165 1135 q 145 1231 142 1194 q 189 1313 149 1268 q 246 1358 214 1339 q 313 1389 278 1378 q 475 1389 392 1413 q 505 1380 490 1385 q 535 1369 519 1375 q 557 1363 547 1364 q 563 1360 560 1361 q 569 1358 567 1358 q 590 1368 575 1358 q 602 1374 596 1371 q 615 1379 608 1376 q 667 1388 640 1388 q 683 1387 675 1388 q 699 1385 690 1386 q 753 1360 728 1378 q 794 1318 778 1343 z "},"ä":{"ha":1007,"x_min":-4,"x_max":965,"o":"m 936 601 q 963 390 965 499 q 921 181 960 281 q 918 173 919 176 q 915 165 917 169 q 865 78 896 119 q 786 18 833 38 q 694 3 742 -1 q 606 36 646 8 q 531 147 549 78 q 524 196 524 172 l 524 199 q 515 204 522 203 q 498 206 507 206 q 481 207 489 207 q 469 207 472 207 q 439 206 454 207 q 408 200 424 204 q 406 199 406 200 q 404 196 404 199 q 405 172 406 185 q 403 149 404 160 q 382 82 397 113 q 338 31 367 51 q 249 0 297 1 q 158 22 200 -1 q 110 67 126 40 q 81 125 94 93 q 72 145 76 136 q 64 165 68 154 q 51 201 57 183 q 40 236 46 218 q 1 462 7 346 q 33 689 -4 578 q 65 767 46 726 q 151 890 100 833 q 268 983 201 946 q 365 1022 314 1010 q 467 1032 415 1033 q 569 1017 519 1031 q 665 978 619 1003 q 785 883 733 940 q 874 760 836 826 q 919 654 901 707 q 936 601 929 628 m 471 494 q 487 513 482 500 q 489 538 492 525 q 478 555 486 547 q 460 565 471 563 q 446 567 456 567 q 423 543 426 564 q 426 508 419 522 q 447 493 433 497 q 471 494 460 489 m 303 1378 q 365 1365 336 1378 q 414 1330 393 1351 q 447 1279 435 1308 q 461 1218 460 1250 q 449 1157 463 1186 q 414 1106 436 1128 q 363 1072 392 1085 q 303 1060 333 1060 q 240 1072 269 1060 q 190 1106 211 1085 q 157 1157 169 1128 q 143 1218 144 1186 q 155 1279 142 1250 q 190 1330 168 1308 q 242 1365 213 1351 q 303 1378 271 1378 m 817 1218 q 805 1157 818 1186 q 769 1106 792 1128 q 717 1072 747 1085 q 657 1060 688 1060 q 595 1072 624 1060 q 545 1106 567 1085 q 511 1157 524 1128 q 497 1218 499 1186 q 509 1279 496 1250 q 544 1330 522 1308 q 596 1365 567 1351 q 657 1378 625 1378 q 719 1365 690 1378 q 769 1330 747 1351 q 803 1279 790 1308 q 817 1218 815 1250 z "},"å":{"ha":1007,"x_min":-4,"x_max":963,"o":"m 935 600 q 960 389 963 497 q 919 181 958 281 q 917 172 918 176 q 914 165 915 168 q 863 78 894 119 q 785 18 832 38 q 692 3 740 -1 q 606 36 644 8 q 556 85 575 57 q 529 146 538 114 q 525 171 526 158 q 522 196 524 183 l 522 199 q 513 203 521 201 q 497 206 506 206 q 481 207 489 207 q 468 207 472 207 q 438 205 453 207 q 407 200 422 203 q 404 199 406 200 l 404 196 q 404 172 404 183 q 401 147 404 160 q 381 82 397 113 q 336 31 365 51 q 249 0 297 1 q 158 22 200 -1 q 110 67 126 40 q 81 125 94 93 q 72 145 76 136 q 64 165 68 154 q 51 199 57 182 q 40 235 46 217 q 1 462 7 346 q 33 688 -4 578 q 65 765 46 725 q 151 888 100 832 q 268 981 201 944 q 466 1030 360 1033 q 664 975 572 1026 q 783 882 732 939 q 871 758 835 825 q 918 653 899 708 q 935 600 929 624 m 469 494 q 486 512 481 500 q 489 536 492 524 q 460 564 482 557 q 446 565 454 565 q 423 542 426 563 q 426 507 419 522 q 445 492 432 496 q 469 494 458 488 m 638 1217 q 626 1156 639 1185 q 590 1104 613 1126 q 539 1069 568 1082 q 479 1057 510 1057 q 417 1069 446 1057 q 367 1104 389 1082 q 333 1156 346 1126 q 319 1217 321 1185 q 331 1277 318 1249 q 367 1328 344 1306 q 418 1363 389 1350 q 479 1375 447 1375 q 541 1363 513 1375 q 590 1328 569 1350 q 624 1278 611 1307 q 638 1217 636 1249 m 508 1218 q 508 1232 511 1225 q 486 1255 506 1251 q 451 1251 467 1258 q 436 1232 440 1244 q 438 1208 432 1219 q 456 1192 443 1197 q 481 1189 468 1186 q 498 1199 490 1192 q 508 1218 506 1207 z "},"ç":{"ha":1000,"x_min":0,"x_max":969,"o":"m 904 469 q 944 413 929 444 q 965 346 960 381 q 963 277 969 311 q 939 213 957 243 q 819 88 894 140 q 650 14 744 36 q 706 -60 686 -17 q 724 -151 725 -104 q 684 -274 724 -218 q 585 -358 644 -329 q 488 -386 540 -382 q 386 -371 435 -390 q 345 -347 364 -362 q 316 -310 326 -331 q 304 -267 306 -290 q 315 -221 303 -244 q 351 -183 328 -197 q 401 -168 375 -168 q 428 -171 414 -168 q 455 -175 442 -174 q 481 -174 468 -176 q 506 -164 494 -172 q 516 -150 513 -160 q 508 -136 519 -140 q 493 -135 503 -132 q 444 -141 469 -136 q 397 -147 419 -146 q 353 -138 374 -147 q 315 -104 332 -129 q 306 -33 293 -69 q 349 25 319 4 q 351 26 350 26 q 346 28 349 28 q 208 103 271 54 q 98 215 144 151 q 26 353 51 278 q 1 508 0 429 q 28 664 3 589 q 99 801 54 739 q 205 913 143 864 q 340 992 267 961 q 584 1028 458 1040 q 819 953 710 1017 q 913 878 871 924 q 956 769 954 832 q 928 667 957 715 q 851 593 900 618 q 707 586 782 558 q 668 603 688 593 q 629 620 649 613 q 589 631 610 628 q 547 629 568 635 q 474 574 500 617 q 457 528 463 554 q 463 481 451 501 q 488 456 471 464 q 524 447 504 447 q 559 453 542 447 q 593 468 576 460 q 635 494 614 481 q 679 517 656 508 q 771 531 722 535 q 843 513 808 528 q 904 469 878 497 z "},"è":{"ha":750,"x_min":1,"x_max":704,"o":"m 514 1365 q 615 1305 578 1351 q 646 1192 653 1258 q 626 1136 643 1164 q 588 1092 610 1108 q 533 1064 565 1074 q 472 1060 500 1054 q 330 1090 401 1075 q 188 1119 258 1104 q 99 1170 136 1131 q 56 1263 63 1210 q 60 1319 51 1292 q 86 1367 68 1346 q 129 1403 104 1389 q 183 1421 154 1417 q 263 1419 224 1426 q 342 1404 303 1413 q 428 1385 386 1394 q 514 1365 471 1375 m 535 340 q 628 310 585 338 q 692 233 672 282 q 703 176 703 206 q 694 117 704 146 q 667 65 685 89 q 622 29 649 42 q 567 12 596 17 q 508 4 538 7 q 351 0 431 -1 q 193 13 271 1 q 119 27 158 17 q 56 65 79 38 q 33 106 40 85 q 19 151 25 128 q 9 239 13 182 q 3 365 6 296 q 1 508 1 433 q 3 652 1 583 q 6 775 4 721 q 11 857 8 829 q 47 955 17 913 q 131 1013 76 997 q 190 1022 160 1021 q 249 1025 219 1024 q 349 1029 299 1028 q 449 1031 399 1031 q 540 1028 493 1031 q 626 1000 586 1025 q 683 940 663 976 q 704 860 704 903 q 690 794 704 824 q 653 742 676 764 q 599 706 631 719 q 535 690 568 692 q 463 688 499 688 q 392 690 428 689 q 392 679 392 685 q 393 668 393 674 q 464 670 429 669 q 535 668 499 671 q 616 641 583 664 q 665 585 649 618 q 682 515 682 553 q 665 445 682 478 q 616 390 649 413 q 535 363 583 367 q 467 360 500 360 q 399 364 433 361 l 399 340 q 467 342 433 342 q 535 340 500 343 z "},"é":{"ha":750,"x_min":1,"x_max":706,"o":"m 186 1367 q 273 1386 231 1376 q 358 1406 315 1396 q 438 1421 397 1414 q 518 1422 478 1428 q 572 1404 547 1418 q 615 1369 597 1390 q 641 1320 632 1347 q 646 1264 650 1293 q 601 1172 639 1211 q 513 1121 564 1132 q 371 1091 442 1106 q 228 1061 300 1076 q 167 1065 200 1054 q 113 1092 135 1075 q 74 1138 90 1110 q 54 1193 57 1165 q 86 1306 49 1260 q 186 1367 124 1353 m 535 342 q 467 344 501 344 q 399 340 433 343 l 399 364 q 467 362 433 363 q 535 364 501 361 q 616 390 583 367 q 665 447 649 414 q 682 517 682 479 q 666 587 682 554 q 617 642 650 619 q 535 669 583 665 q 464 671 499 672 q 393 668 429 669 q 393 680 393 675 q 392 692 393 685 q 463 689 428 690 q 535 690 499 688 q 600 706 569 693 q 653 742 631 719 q 690 794 676 764 q 704 860 704 824 q 683 940 704 904 q 626 1000 663 976 q 540 1028 586 1025 q 449 1032 494 1032 q 349 1030 399 1032 q 249 1026 299 1028 q 190 1024 219 1025 q 131 1014 160 1022 q 47 956 76 999 q 11 858 17 914 q 6 776 8 831 q 3 653 4 721 q 1 510 1 585 q 3 365 1 435 q 9 239 6 296 q 19 151 13 182 q 33 106 25 128 q 56 65 40 85 q 119 27 79 38 q 194 13 158 17 q 351 0 271 1 q 510 4 432 -1 q 567 12 539 7 q 622 29 596 17 q 667 66 649 43 q 696 117 686 89 q 705 176 706 146 q 693 233 704 206 q 629 310 674 282 q 535 342 585 338 z "},"ê":{"ha":750,"x_min":1,"x_max":704,"o":"m 533 340 q 628 309 583 338 q 692 232 672 281 q 703 174 703 204 q 694 117 704 144 q 667 65 685 89 q 622 29 649 42 q 566 11 594 15 q 508 4 538 7 q 351 0 431 -1 q 193 11 271 1 q 119 27 158 17 q 56 65 79 38 q 33 106 40 83 q 19 151 25 128 q 9 238 13 182 q 3 363 6 294 q 1 508 1 432 q 3 651 1 583 q 6 774 4 719 q 11 856 8 828 q 47 953 17 911 q 131 1011 76 996 q 190 1021 160 1019 q 249 1024 219 1022 q 349 1027 299 1025 q 449 1029 399 1029 q 540 1026 493 1029 q 626 997 586 1024 q 683 938 663 974 q 703 858 703 901 q 689 792 703 822 q 652 740 675 763 q 599 705 629 718 q 533 689 568 692 q 463 687 497 686 q 392 690 428 688 q 392 678 392 683 q 393 667 392 672 q 463 669 428 668 q 533 667 499 669 q 644 615 607 661 q 681 515 681 569 q 644 414 681 460 q 533 363 607 368 q 466 360 500 360 q 399 363 432 361 l 399 340 q 466 342 432 342 q 533 340 500 343 m 563 1338 q 628 1267 607 1310 q 632 1171 650 1224 q 604 1119 624 1143 q 559 1078 585 1094 q 503 1058 533 1063 q 443 1064 474 1053 q 396 1081 419 1072 q 349 1097 372 1089 q 301 1081 325 1089 q 254 1064 278 1072 q 194 1058 224 1053 q 138 1078 164 1063 q 93 1119 113 1094 q 64 1171 74 1143 q 69 1267 47 1224 q 135 1338 90 1310 q 173 1359 147 1346 q 229 1385 199 1372 q 292 1407 260 1397 q 349 1417 324 1417 q 405 1407 374 1417 q 467 1385 436 1397 q 524 1359 499 1372 q 563 1338 550 1346 z "},"ë":{"ha":750,"x_min":1,"x_max":706,"o":"m 535 340 q 629 309 585 338 q 693 233 674 281 q 705 176 704 206 q 696 117 706 146 q 667 65 686 89 q 622 29 649 42 q 567 11 596 15 q 510 4 539 7 q 351 0 432 -1 q 194 11 271 1 q 119 27 158 17 q 56 65 79 38 q 33 106 40 83 q 19 151 25 128 q 9 238 13 182 q 3 364 6 294 q 1 508 1 433 q 3 652 1 583 q 6 776 4 721 q 11 858 8 831 q 47 956 17 913 q 131 1014 76 999 q 190 1024 160 1022 q 249 1026 219 1025 q 349 1030 299 1028 q 449 1032 399 1032 q 541 1028 494 1031 q 626 1000 588 1025 q 683 940 663 976 q 704 860 704 903 q 690 794 704 824 q 653 742 676 764 q 600 706 631 719 q 535 690 569 693 q 463 688 499 688 q 392 692 428 689 q 393 679 393 685 q 393 668 393 674 q 464 670 429 669 q 535 668 499 671 q 617 641 583 664 q 666 585 650 618 q 682 515 682 553 q 665 445 682 478 q 616 390 649 413 q 535 363 583 367 q 467 360 501 360 q 399 364 433 361 l 399 340 q 467 342 433 342 q 535 340 501 343 m 174 1378 q 235 1365 207 1378 q 285 1330 264 1351 q 318 1279 306 1308 q 332 1218 331 1250 q 320 1157 333 1186 q 285 1106 307 1128 q 233 1072 263 1085 q 174 1060 204 1060 q 111 1072 140 1060 q 61 1106 82 1085 q 28 1157 40 1128 q 14 1218 15 1186 q 26 1279 13 1250 q 61 1330 39 1308 q 113 1365 83 1351 q 174 1378 142 1378 m 688 1218 q 676 1157 689 1186 q 640 1106 663 1128 q 588 1072 618 1085 q 528 1060 558 1060 q 466 1072 494 1060 q 416 1106 438 1085 q 382 1157 394 1128 q 368 1218 369 1186 q 380 1279 367 1250 q 415 1330 393 1308 q 467 1365 438 1351 q 528 1378 496 1378 q 590 1365 561 1378 q 640 1330 618 1351 q 674 1279 661 1308 q 688 1218 686 1250 z "},"ì":{"ha":479,"x_min":-79,"x_max":522,"o":"m 383 1365 q 485 1305 447 1351 q 515 1192 522 1258 q 496 1136 513 1164 q 457 1092 479 1108 q 402 1064 435 1074 q 342 1060 369 1054 q 199 1090 271 1075 q 57 1119 128 1104 q -31 1170 6 1131 q -75 1263 -68 1210 q -70 1319 -79 1292 q -44 1367 -61 1346 q -1 1403 -26 1389 q 53 1421 24 1417 q 133 1419 93 1426 q 211 1404 172 1413 q 298 1385 256 1394 q 383 1365 340 1375 m 432 325 q 431 258 432 293 q 424 187 431 222 q 403 118 418 151 q 360 57 388 85 q 296 15 332 29 q 219 0 260 0 q 185 4 201 0 q 99 42 138 13 q 40 115 60 71 q 19 199 21 156 q 18 283 17 243 l 18 289 q 19 426 21 357 q 15 563 18 494 q 15 610 15 586 q 14 658 14 635 q 13 673 14 665 q 13 688 13 681 q 11 756 11 721 q 16 826 11 792 q 33 894 21 861 q 68 957 44 928 q 137 1011 96 992 q 222 1031 178 1031 q 238 1031 229 1031 q 253 1029 246 1031 q 315 1006 285 1022 q 364 965 344 990 q 406 881 396 928 q 419 790 417 835 q 428 604 426 697 q 431 419 431 511 q 432 380 432 400 q 432 339 432 360 l 432 325 z "},"í":{"ha":479,"x_min":-82,"x_max":521,"o":"m 57 1367 q 142 1386 100 1376 q 229 1406 185 1396 q 308 1421 268 1414 q 388 1422 347 1428 q 442 1404 417 1418 q 485 1369 468 1390 q 512 1320 503 1347 q 517 1264 521 1293 q 472 1172 510 1211 q 383 1121 435 1132 q 241 1091 313 1106 q 99 1061 169 1076 q 38 1065 71 1054 q -17 1092 6 1075 q -56 1138 -39 1110 q -75 1193 -72 1165 q -44 1306 -82 1260 q 57 1367 -7 1353 m 433 325 l 433 340 q 433 380 433 360 q 432 421 433 400 q 430 605 432 513 q 421 790 428 697 q 408 881 418 835 q 365 967 397 928 q 315 1007 344 990 q 254 1029 286 1024 q 238 1031 246 1031 q 224 1032 231 1032 q 138 1013 179 1032 q 69 957 97 993 q 34 894 46 928 q 17 827 22 861 q 13 758 13 793 q 14 689 13 722 l 14 658 q 15 610 15 635 q 17 563 15 586 q 20 426 19 494 q 19 289 21 357 l 19 283 q 20 199 18 243 q 42 115 22 156 q 100 42 61 71 q 186 4 139 13 q 221 0 203 0 q 297 15 261 0 q 361 57 333 29 q 404 118 389 85 q 426 187 419 151 q 433 258 432 222 q 433 325 433 293 z "},"î":{"ha":479,"x_min":-86,"x_max":517,"o":"m 429 325 q 428 256 429 292 q 422 185 428 221 q 400 117 415 150 q 357 57 385 83 q 292 15 329 29 q 217 0 256 0 q 199 1 208 0 q 182 3 190 1 q 96 41 135 11 q 38 114 57 71 q 16 198 18 154 q 15 282 14 242 l 15 288 q 17 425 18 357 q 13 561 15 493 q 12 609 13 585 q 11 657 11 633 q 10 672 11 664 q 10 686 10 679 q 8 755 8 719 q 13 825 8 790 q 30 893 18 860 q 65 956 42 926 q 133 1010 93 990 q 219 1029 174 1029 q 234 1029 226 1029 q 249 1026 242 1029 q 361 964 318 1015 q 403 880 393 926 q 417 789 413 833 q 425 603 424 696 q 428 419 426 511 q 428 378 428 399 q 429 339 428 358 l 429 325 m 429 1338 q 495 1267 474 1310 q 500 1171 517 1224 q 471 1119 490 1143 q 426 1078 451 1094 q 370 1058 400 1063 q 310 1064 340 1053 q 263 1081 286 1072 q 215 1097 239 1089 q 168 1081 192 1089 q 121 1064 144 1072 q 60 1058 90 1053 q 5 1078 31 1063 q -40 1119 -21 1094 q -69 1171 -60 1143 q -65 1267 -86 1224 q 1 1338 -43 1310 q 40 1359 14 1346 q 96 1385 65 1372 q 158 1407 126 1397 q 215 1417 190 1417 q 272 1407 240 1417 q 335 1385 304 1397 q 391 1359 365 1372 q 429 1338 417 1346 z "},"ï":{"ha":479,"x_min":-125,"x_max":551,"o":"m 425 325 q 424 256 425 292 q 417 185 424 221 q 396 117 411 150 q 353 57 381 83 q 289 15 325 29 q 213 0 253 0 q 196 1 204 0 q 179 3 188 1 q 93 41 132 11 q 33 114 54 71 q 12 199 14 154 q 11 283 10 243 l 11 288 q 13 426 14 357 q 8 563 11 494 q 8 610 8 586 q 7 658 7 635 q 6 673 7 665 q 6 688 6 681 q 4 756 4 721 q 9 826 4 792 q 26 894 14 861 q 61 957 38 928 q 130 1013 89 993 q 215 1032 171 1032 q 231 1031 222 1032 q 246 1029 239 1031 q 358 965 314 1018 q 400 881 390 928 q 413 790 410 835 q 422 604 419 697 q 425 419 424 511 l 425 339 l 425 325 m 36 1378 q 98 1365 69 1378 q 147 1330 126 1351 q 181 1279 168 1308 q 194 1218 193 1250 q 183 1157 196 1186 q 147 1106 169 1128 q 96 1072 125 1085 q 36 1060 67 1060 q -26 1072 3 1060 q -76 1106 -56 1085 q -110 1157 -97 1128 q -124 1218 -122 1186 q -112 1279 -125 1250 q -76 1330 -99 1308 q -25 1365 -54 1351 q 36 1378 4 1378 m 550 1218 q 538 1157 551 1186 q 503 1106 525 1128 q 451 1072 481 1085 q 390 1060 421 1060 q 328 1072 357 1060 q 278 1106 300 1085 q 244 1157 257 1128 q 231 1218 232 1186 q 242 1279 229 1250 q 278 1330 256 1308 q 329 1365 300 1351 q 390 1378 358 1378 q 452 1365 424 1378 q 502 1330 481 1351 q 536 1279 524 1308 q 550 1218 549 1250 z "},"ñ":{"ha":875,"x_min":0,"x_max":831,"o":"m 831 324 q 829 251 831 290 q 819 174 828 213 q 793 101 811 136 q 740 40 775 67 q 624 0 689 0 q 508 42 558 0 q 400 181 472 69 q 376 110 394 143 q 332 52 358 76 q 272 14 306 28 q 201 0 239 0 q 125 17 163 0 q 14 146 42 53 q 1 219 3 182 q 0 292 0 257 l 0 293 q 3 433 0 364 q 8 569 6 501 q 10 607 10 589 q 11 643 10 625 q 16 740 14 692 q 21 838 18 789 q 47 933 25 890 q 104 1001 68 976 q 196 1032 147 1032 q 266 1015 233 1032 q 326 971 299 997 q 375 915 353 944 q 414 858 397 885 l 419 853 q 430 836 425 844 q 440 821 435 828 q 442 844 442 832 q 446 867 443 856 q 497 979 460 940 q 599 1029 539 1021 q 611 1031 606 1031 q 624 1031 617 1031 q 729 996 682 1031 q 793 906 776 961 q 806 833 800 881 q 815 726 811 785 q 822 605 819 668 q 827 488 825 542 q 830 394 829 433 q 831 346 831 356 l 831 324 m 728 1317 q 746 1222 757 1271 q 721 1168 739 1193 q 678 1124 703 1143 q 628 1091 654 1104 q 579 1071 601 1078 q 500 1060 539 1060 q 418 1071 460 1060 q 388 1081 403 1076 q 358 1090 374 1086 q 347 1094 351 1093 q 336 1099 342 1096 q 324 1101 328 1101 q 315 1099 319 1101 q 303 1093 310 1096 q 290 1088 296 1090 q 278 1082 285 1085 q 226 1072 254 1072 q 194 1076 208 1072 q 128 1108 158 1083 q 85 1168 99 1133 q 78 1230 75 1193 q 122 1311 82 1267 q 179 1357 147 1338 q 246 1388 211 1376 q 408 1388 325 1411 q 438 1378 424 1383 q 468 1368 453 1374 q 490 1361 481 1363 q 497 1358 493 1360 q 503 1357 500 1357 q 524 1367 508 1357 q 535 1372 529 1369 q 549 1378 542 1375 q 600 1386 574 1386 q 616 1385 608 1386 q 632 1383 624 1385 q 686 1359 661 1376 q 728 1317 711 1342 z "},"ò":{"ha":1083,"x_min":-6,"x_max":1032,"o":"m 675 1365 q 776 1305 739 1351 q 807 1192 814 1258 q 788 1136 804 1164 q 749 1092 771 1108 q 694 1064 726 1074 q 633 1060 661 1054 q 492 1090 563 1075 q 350 1119 421 1104 q 261 1170 299 1131 q 217 1263 224 1210 q 222 1319 213 1292 q 248 1367 231 1346 q 290 1403 265 1389 q 344 1421 315 1417 q 424 1419 385 1426 q 504 1404 464 1413 q 590 1385 547 1394 q 675 1365 632 1375 m 1000 714 q 1026 512 1032 615 q 978 314 1021 408 q 856 144 933 215 q 682 35 778 72 q 481 1 586 -1 q 278 53 376 3 q 96 210 167 108 q 7 433 25 311 q 10 610 -6 522 q 67 774 25 697 q 174 909 108 850 q 328 1000 240 968 q 527 1031 422 1033 q 726 990 632 1028 q 894 883 821 953 q 1000 714 968 814 m 540 518 q 542 532 543 526 q 519 555 539 551 q 485 551 500 558 q 469 531 474 544 q 471 507 465 518 q 489 491 476 496 q 513 489 501 486 q 531 499 524 492 q 540 518 538 507 z "},"ó":{"ha":1083,"x_min":-6,"x_max":1032,"o":"m 349 1367 q 434 1386 392 1376 q 519 1406 476 1396 q 599 1421 560 1414 q 679 1422 639 1428 q 733 1404 708 1418 q 776 1369 758 1390 q 803 1320 794 1347 q 807 1264 811 1293 q 763 1172 800 1211 q 675 1121 726 1132 q 533 1091 604 1106 q 390 1061 461 1076 q 330 1065 363 1054 q 275 1092 297 1075 q 236 1138 253 1110 q 217 1193 219 1165 q 247 1306 210 1260 q 349 1367 285 1353 m 1000 715 q 894 885 968 815 q 726 992 821 954 q 528 1032 632 1029 q 329 1001 424 1035 q 175 910 242 969 q 67 775 108 851 q 10 610 25 699 q 7 433 -6 522 q 96 210 25 311 q 278 53 167 108 q 482 1 376 3 q 683 35 588 -1 q 856 144 778 72 q 979 314 935 215 q 1027 512 1022 408 q 1000 715 1032 615 m 542 518 q 531 499 539 507 q 514 489 524 492 q 489 492 501 486 q 471 508 476 497 q 469 532 465 519 q 485 551 474 544 q 520 555 500 558 q 543 532 540 551 q 542 518 543 522 z "},"ô":{"ha":1083,"x_min":-6,"x_max":1031,"o":"m 999 713 q 1025 510 1031 614 q 976 313 1019 407 q 854 142 932 214 q 681 35 776 71 q 481 1 586 -1 q 278 53 376 3 q 96 209 167 108 q 7 432 25 310 q 10 608 -6 521 q 67 772 25 696 q 174 908 108 849 q 328 999 240 967 q 526 1029 422 1032 q 725 989 631 1026 q 893 882 819 951 q 999 713 967 813 m 540 517 q 542 531 542 521 q 519 553 539 550 q 483 550 499 557 q 468 531 472 543 q 471 507 464 518 q 488 490 476 496 q 513 488 500 485 q 531 498 524 490 q 540 517 538 506 m 724 1338 q 790 1267 768 1310 q 794 1171 811 1224 q 765 1119 785 1143 q 720 1078 746 1094 q 665 1058 694 1063 q 604 1064 635 1053 q 557 1081 581 1072 q 510 1097 533 1089 q 463 1081 486 1089 q 415 1064 439 1072 q 355 1058 385 1053 q 299 1078 325 1063 q 254 1119 274 1094 q 226 1171 235 1143 q 230 1267 208 1224 q 296 1338 251 1310 q 334 1359 308 1346 q 391 1385 360 1372 q 453 1407 422 1397 q 510 1417 485 1417 q 567 1407 535 1417 q 629 1385 599 1397 q 685 1359 660 1372 q 724 1338 711 1346 z "},"õ":{"ha":1083,"x_min":-6,"x_max":1033,"o":"m 1001 715 q 1028 512 1033 615 q 979 314 1022 408 q 857 144 935 215 q 683 35 779 72 q 482 1 588 -1 q 278 53 376 3 q 96 210 167 108 q 7 433 25 311 q 10 610 -6 522 q 67 774 25 699 q 175 909 108 850 q 329 1000 242 968 q 528 1032 424 1035 q 726 992 632 1029 q 894 885 821 954 q 1001 715 968 815 m 542 518 q 543 532 543 522 q 520 555 540 551 q 485 551 500 558 q 469 531 474 544 q 471 507 465 518 q 490 491 478 496 q 514 489 501 486 q 531 499 524 492 q 542 518 539 507 m 826 1317 q 846 1222 857 1271 q 821 1168 839 1193 q 778 1124 803 1143 q 728 1091 754 1104 q 679 1071 701 1078 q 600 1060 639 1060 q 517 1071 561 1060 q 487 1081 501 1076 q 457 1090 472 1086 l 436 1099 q 424 1101 425 1101 q 414 1099 419 1101 q 401 1093 408 1096 q 378 1082 389 1086 q 325 1072 354 1072 q 294 1076 308 1072 q 228 1108 258 1083 q 185 1168 199 1133 q 178 1230 175 1193 q 222 1311 182 1267 q 278 1357 247 1338 q 346 1388 310 1376 q 508 1388 425 1411 q 538 1378 524 1383 q 568 1368 553 1374 q 589 1361 582 1363 q 597 1358 593 1360 q 601 1357 600 1357 q 624 1367 608 1357 q 635 1372 629 1369 q 647 1378 640 1375 q 700 1386 672 1386 q 715 1385 707 1386 q 731 1383 724 1385 q 786 1359 761 1376 q 826 1317 811 1342 z "},"ö":{"ha":1083,"x_min":-6,"x_max":1032,"o":"m 1000 714 q 1027 512 1032 615 q 979 314 1022 408 q 856 144 935 215 q 683 35 778 72 q 482 1 588 -1 q 278 53 376 3 q 96 210 167 108 q 7 433 25 311 q 10 610 -6 522 q 67 774 25 699 q 175 909 108 850 q 329 1000 242 968 q 528 1031 424 1035 q 726 990 632 1028 q 894 883 821 953 q 1000 714 968 814 m 542 518 q 543 532 543 522 q 520 555 540 551 q 485 551 500 558 q 469 531 474 544 q 471 507 465 518 q 489 491 476 496 q 514 489 501 486 q 531 499 524 492 q 542 518 539 507 m 335 1378 q 397 1365 368 1378 q 447 1330 425 1351 q 481 1279 468 1308 q 494 1218 493 1250 q 483 1157 496 1186 q 447 1106 469 1128 q 395 1072 425 1085 q 335 1060 365 1060 q 273 1072 301 1060 q 224 1106 244 1085 q 190 1157 203 1128 q 176 1218 178 1186 q 188 1279 175 1250 q 222 1330 200 1308 q 274 1365 244 1351 q 335 1378 303 1378 m 849 1218 q 837 1157 850 1186 q 801 1106 824 1128 q 750 1072 779 1085 q 690 1060 721 1060 q 628 1072 657 1060 q 578 1106 599 1085 q 544 1157 557 1128 q 531 1218 532 1186 q 542 1279 529 1250 q 578 1330 556 1308 q 629 1365 600 1351 q 690 1378 658 1378 q 752 1365 724 1378 q 801 1330 781 1351 q 835 1279 822 1308 q 849 1218 847 1250 z "},"ù":{"ha":986,"x_min":0,"x_max":932,"o":"m 626 1365 q 728 1305 690 1351 q 758 1192 765 1258 q 740 1136 756 1164 q 701 1092 724 1108 q 646 1064 679 1074 q 585 1060 613 1054 q 443 1090 514 1075 q 301 1119 372 1104 q 213 1170 250 1131 q 168 1263 175 1210 q 173 1319 164 1292 q 199 1367 182 1346 q 242 1403 217 1389 q 296 1421 267 1417 q 376 1419 336 1426 q 456 1404 417 1413 q 541 1385 499 1394 q 626 1365 583 1375 m 857 875 q 913 716 893 799 q 932 549 932 633 q 858 242 932 376 q 758 113 818 167 q 625 31 697 58 q 468 0 554 0 l 464 0 q 307 31 378 0 q 174 113 235 58 q 74 242 114 167 q 0 549 0 376 q 19 716 0 633 q 74 875 38 799 q 201 1018 128 985 q 267 1031 232 1031 q 367 1001 321 1031 q 433 924 414 971 q 429 747 463 851 q 423 729 426 739 q 417 710 419 719 q 388 615 401 664 q 386 526 375 567 q 418 476 394 490 q 465 463 442 463 q 513 476 489 463 q 546 526 538 490 q 544 615 557 567 q 515 710 531 664 q 509 729 513 719 q 503 747 506 739 q 499 924 469 851 q 565 1001 518 971 q 665 1031 611 1031 q 731 1018 699 1031 q 857 875 806 985 z "},"ú":{"ha":986,"x_min":0,"x_max":933,"o":"m 300 1367 q 385 1386 343 1376 q 472 1406 428 1396 q 551 1421 511 1414 q 631 1422 590 1428 q 685 1404 660 1418 q 728 1369 711 1390 q 755 1320 746 1347 q 760 1264 764 1293 q 715 1172 753 1211 q 626 1121 678 1132 q 484 1091 556 1106 q 342 1061 413 1076 q 281 1065 314 1054 q 226 1092 249 1075 q 188 1138 204 1110 q 168 1193 171 1165 q 199 1306 161 1260 q 300 1367 236 1353 m 858 875 q 731 1018 807 985 q 665 1032 703 1032 q 565 1002 611 1032 q 499 924 518 972 q 503 749 469 853 q 509 730 506 739 q 515 710 513 721 q 544 616 531 665 q 546 526 557 567 q 514 476 538 490 q 467 463 490 463 q 419 476 443 463 q 386 526 396 490 q 388 616 375 567 q 417 710 401 665 q 423 730 419 721 q 429 749 426 739 q 433 925 463 853 q 368 1002 414 972 q 267 1032 322 1032 q 201 1018 231 1032 q 74 875 126 985 q 19 716 38 799 q 0 549 0 633 q 74 242 0 376 q 174 113 114 168 q 307 31 235 58 q 464 0 378 0 l 468 0 q 625 31 554 0 q 758 113 697 58 q 858 242 818 168 q 914 386 894 308 q 933 549 933 464 q 913 716 932 633 q 858 875 894 799 z "},"û":{"ha":986,"x_min":0,"x_max":931,"o":"m 857 874 q 931 547 931 719 q 912 385 931 463 q 857 242 893 308 q 757 113 817 167 q 624 29 697 58 q 468 0 550 0 l 464 0 q 307 29 379 0 q 174 113 235 58 q 74 242 114 167 q 19 385 38 308 q 0 547 0 463 q 19 715 0 632 q 74 874 38 797 q 201 1015 128 985 q 267 1029 231 1029 q 367 999 321 1029 q 433 922 414 969 q 429 746 463 850 q 417 708 422 729 q 388 614 401 663 q 386 525 375 565 q 418 475 394 489 q 465 461 442 461 q 513 475 489 461 q 546 525 536 489 q 543 614 556 565 q 515 708 531 663 q 503 746 507 729 q 499 922 469 850 q 564 999 518 969 q 664 1029 610 1029 q 729 1015 701 1029 q 857 874 803 985 m 675 1338 q 742 1267 719 1310 q 746 1171 764 1224 q 718 1119 738 1143 q 673 1078 699 1094 q 617 1058 647 1063 q 557 1064 588 1053 l 461 1097 q 414 1081 438 1089 q 367 1064 390 1072 q 306 1058 336 1053 q 251 1078 276 1063 q 206 1119 225 1094 q 178 1171 186 1143 q 182 1267 160 1224 q 249 1338 204 1310 q 287 1359 261 1346 q 343 1385 313 1372 q 406 1407 374 1397 q 461 1417 438 1417 q 518 1407 486 1417 q 581 1385 550 1397 q 637 1359 611 1372 q 675 1338 663 1346 z "},"ü":{"ha":986,"x_min":0,"x_max":933,"o":"m 858 875 q 913 716 894 799 q 933 549 932 633 q 914 386 933 464 q 858 242 894 308 q 758 113 818 167 q 625 29 699 58 q 468 0 551 0 l 464 0 q 307 29 379 0 q 174 113 235 58 q 74 242 114 167 q 19 386 38 308 q 0 549 0 464 q 19 716 0 633 q 74 875 38 799 q 201 1018 128 985 q 267 1032 236 1032 q 368 1002 322 1032 q 433 924 414 972 q 429 747 463 853 q 423 730 426 739 q 417 710 419 721 q 388 615 401 664 q 386 526 375 567 q 419 476 396 490 q 467 463 443 463 q 514 476 490 463 q 546 526 538 490 q 544 615 557 567 q 515 710 531 664 q 503 747 508 731 q 499 924 469 853 q 565 1002 518 972 q 665 1032 611 1032 q 731 1018 699 1032 q 858 875 807 985 m 286 1378 q 349 1365 319 1378 q 399 1330 378 1351 q 432 1279 419 1308 q 446 1218 444 1250 q 434 1157 447 1186 q 399 1106 421 1128 q 347 1072 376 1085 q 286 1060 317 1060 q 224 1072 253 1060 q 175 1106 196 1085 q 142 1157 154 1128 q 128 1218 129 1186 q 139 1279 126 1250 q 174 1330 151 1308 q 225 1365 196 1351 q 286 1378 254 1378 m 800 1218 q 789 1157 801 1186 q 754 1106 776 1128 q 702 1072 732 1085 q 642 1060 672 1060 q 580 1072 608 1060 q 530 1106 551 1085 q 496 1157 508 1128 q 482 1218 483 1186 q 494 1279 481 1250 q 529 1330 507 1308 q 581 1365 551 1351 q 642 1378 610 1378 q 703 1365 675 1378 q 753 1330 732 1351 q 786 1279 774 1308 q 800 1218 799 1250 z "},",":{"ha":444,"x_min":-3,"x_max":392,"o":"m 368 264 q 387 209 382 239 q 390 148 392 179 q 382 83 389 117 q 367 19 375 50 q 328 -72 351 -36 q 269 -126 304 -108 q 181 -149 229 -149 q 110 -135 142 -149 q 56 -99 79 -122 q 18 -47 32 -75 q 1 14 4 -18 q 7 76 -3 46 q 72 238 28 143 q 155 325 101 297 q 269 339 208 353 q 325 312 297 332 q 368 264 353 292 z "},";":{"ha":444,"x_min":-3,"x_max":393,"o":"m 368 264 q 387 209 382 239 q 390 148 392 179 q 382 83 389 117 q 367 19 375 50 q 328 -72 351 -36 q 269 -126 304 -108 q 181 -149 229 -149 q 110 -135 142 -149 q 56 -99 79 -122 q 18 -47 32 -75 q 1 14 4 -18 q 7 76 -3 46 q 72 238 28 143 q 155 325 101 297 q 269 339 208 353 q 325 312 297 332 q 368 264 353 292 m 219 365 q 128 393 168 365 q 68 463 89 421 q 49 552 47 504 q 83 642 51 600 q 143 690 107 672 q 219 708 179 708 q 288 693 256 708 q 343 652 319 678 q 380 593 367 626 q 390 525 393 560 q 373 463 388 492 q 335 413 358 435 q 281 378 311 390 q 219 365 251 365 z "},"?":{"ha":542,"x_min":-3,"x_max":483,"o":"m 475 850 q 483 778 483 817 q 472 676 482 728 q 450 576 463 625 q 422 492 439 535 q 375 417 406 449 q 296 371 343 382 q 203 369 249 360 q 142 400 171 376 q 97 451 114 424 q 76 517 78 483 q 81 586 74 550 q 81 597 81 592 q 83 608 82 601 q 32 675 51 638 q 5 754 13 713 q 4 839 -3 796 q 32 919 11 882 q 97 989 57 963 q 183 1025 136 1015 q 277 1027 229 1035 q 365 994 325 1019 q 475 850 450 942 m 249 0 q 182 14 213 0 q 128 51 151 28 q 92 106 106 75 q 78 172 79 138 q 90 238 76 207 q 128 292 104 268 q 184 329 153 315 q 249 343 215 343 q 316 329 285 343 q 370 292 347 315 q 406 238 393 268 q 421 172 419 207 q 408 106 422 138 q 370 51 394 75 q 314 14 346 28 q 249 0 282 0 z "},"Z":{"ha":868,"x_min":-6,"x_max":817,"o":"m 611 419 q 712 395 668 419 q 783 325 756 371 q 813 210 813 272 q 783 94 813 147 q 712 24 756 49 q 611 0 668 0 l 610 0 l 463 0 l 381 0 q 322 0 349 0 q 272 1 296 0 q 207 6 242 1 q 139 21 172 10 q 76 53 106 32 q 25 108 46 74 q 1 226 -6 164 q 51 351 7 289 q 113 444 83 397 q 172 536 143 490 q 197 576 185 556 q 224 617 210 597 l 201 617 q 110 640 153 618 q 40 703 68 663 q 5 792 11 743 q 14 889 -1 840 q 85 988 35 951 q 201 1025 136 1024 l 611 1031 q 690 1015 653 1031 q 753 973 726 1000 q 797 910 781 946 q 815 832 814 874 q 791 728 817 776 q 736 638 765 681 q 731 629 733 633 q 726 622 729 625 q 660 525 694 575 q 590 419 626 475 l 610 419 l 611 419 l 611 419 z "}}}
